<?xml version="1.0" encoding="utf-8"?>
<!-- Generator: Adobe Illustrator 16.0.0, SVG Export Plug-In . SVG Version: 6.00 Build 0)  -->
<!DOCTYPE svg PUBLIC "-//W3C//DTD SVG 1.1//EN" "http://www.w3.org/Graphics/SVG/1.1/DTD/svg11.dtd">
<svg version="1.1" id="Layer_1" xmlns="http://www.w3.org/2000/svg" xmlns:xlink="http://www.w3.org/1999/xlink" x="0px" y="0px"
	 width="2409.451px" height="448.655px" viewBox="0 2733.892 2409.451 448.655"
	 enable-background="new 0 2733.892 2409.451 448.655" xml:space="preserve">
<g id="Layer_1_1_">
</g>
<g id="Layer_2">
	<g opacity="0.45">
	</g>
	<g opacity="0.45">
	</g>
	<g>
		
			<rect x="459.731" y="2860.902" transform="matrix(-0.1958 0.9806 -0.9806 -0.1958 3654.1074 3000.4412)" fill="#FFFFFF" width="274.036" height="275.308"/>
		
			<rect x="598.147" y="2879.964" transform="matrix(-0.9806 -0.1958 0.1958 -0.9806 673.082 5835.8789)" fill="#3E9DFF" width="53.688" height="9.415"/>
		
			<rect x="494.367" y="2775.944" transform="matrix(-0.9806 -0.1958 0.1958 -0.9806 699.696 5711.6367)" fill="#3E9DFF" width="275.563" height="90.582"/>
		
			<rect x="429.976" y="3132.666" transform="matrix(-0.9806 -0.1958 0.1958 -0.9806 508.6648 6338.7676)" fill="#3E9DFF" width="275.308" height="23.154"/>
		<path d="M459.501,3107.648"/>
		<path d="M460.518,3104.85"/>
		<g>
			<path fill="#FFCD7A" d="M588.242,2885.022l0.764-4.325l3.562,0.764l-0.763,3.308c-0.255,1.526-0.51,2.799-1.019,3.308
				c-0.763,0.763-1.526,1.526-2.798,1.78l-0.51-1.526c0.764-0.254,1.272-0.254,1.781-0.763s0.764-0.764,1.018-2.036
				L588.242,2885.022z M582.644,2883.75l0.764-4.325l3.816,0.764l-0.764,3.308c-0.254,1.526-0.509,2.799-1.271,3.308
				c-0.764,0.764-1.527,1.526-2.799,1.781l-0.51-1.526c0.764-0.255,1.272-0.255,1.781-0.764s0.764-0.764,1.018-2.035
				L582.644,2883.75z"/>
		</g>
		<g>
			<g>
				
					<rect x="465.048" y="3002.946" transform="matrix(-0.1958 0.9806 -0.9806 -0.1958 3617.832 3039.7339)" fill="#C7E3EF" width="194.904" height="0.763"/>
			</g>
		</g>
		
			<rect x="585.483" y="3033.913" transform="matrix(-0.9806 -0.1958 0.1958 -0.9806 618.006 6136.8066)" fill="#3E9DFF" width="53.688" height="7.888"/>
		
			<rect x="604.049" y="2941.046" transform="matrix(-0.9806 -0.1958 0.1958 -0.9806 672.9623 5956.5044)" fill="#3E9DFF" width="53.688" height="7.888"/>
		<path fill="#C7E3EF" d="M608.088,2981.197c0.254-1.272-0.509-2.545-1.781-2.799l4.071-20.863c1.271,0.254,2.544-0.509,2.798-1.781
			c0.255-1.271-0.508-2.544-1.78-2.799c-1.272-0.254-2.544,0.509-2.799,1.781c-0.255,1.018,0.255,2.035,1.018,2.544l-4.325,21.118
			c-1.018,0.254-1.781,0.763-1.781,1.781c-0.254,1.018,0.255,2.035,1.018,2.544l-4.07,20.1c-1.018,0.255-1.781,0.764-1.781,1.781
			s0.254,2.035,1.018,2.544l-2.799,14.503l0.764,0.255l2.799-14.248c1.271,0.254,2.544-0.51,2.799-1.781
			c0.254-1.272-0.51-2.545-1.781-2.799l4.07-19.846C606.815,2983.232,607.833,2982.47,608.088,2981.197z M609.614,2954.991
			c0.255-0.764,1.018-1.272,1.781-1.019c0.763,0.255,1.272,1.019,1.018,1.781c-0.255,0.764-1.018,1.272-1.781,1.018
			C609.869,2956.518,609.359,2955.754,609.614,2954.991z M604.525,2980.434c0.255-0.763,1.018-1.271,1.781-1.018
			c0.764,0.255,1.272,1.018,1.018,1.781c-0.254,0.763-1.018,1.272-1.781,1.018C604.78,2981.96,604.271,2981.197,604.525,2980.434z
			 M602.49,3005.368c-0.254,0.763-1.018,1.272-1.781,1.018c-0.763-0.255-1.271-1.018-1.018-1.781
			c0.255-0.763,1.018-1.272,1.781-1.018S602.49,3004.604,602.49,3005.368z"/>
		
			<rect x="511.924" y="2882.796" transform="matrix(-0.9806 -0.1958 0.1958 -0.9806 501.8035 5824.6074)" fill="#2A74D4" width="53.687" height="9.415"/>
		
			<rect x="494.849" y="2906.446" transform="matrix(-0.9806 -0.1958 0.1958 -0.9806 477.0051 5863.6055)" fill="#C7E3EF" width="66.918" height="3.562"/>
		
			<rect x="595.864" y="2902.135" transform="matrix(-0.9806 -0.1958 0.1958 -0.9806 750.9899 5882.0688)" fill="#C7E3EF" width="140.708" height="3.562"/>
		
			<rect x="593.833" y="2911.52" transform="matrix(-0.9806 -0.1958 0.1958 -0.9806 745.1302 5900.2593)" fill="#C7E3EF" width="140.708" height="3.562"/>
		
			<rect x="592.593" y="2914.082" transform="matrix(-0.9806 -0.1958 0.1958 -0.9806 669.0724 5897.8672)" fill="#C7E3EF" width="66.919" height="3.562"/>
		
			<rect x="584.94" y="2950.193" transform="matrix(-0.9806 -0.1958 0.1958 -0.9806 598.9792 5963.1592)" fill="#C7E3EF" width="18.574" height="3.562"/>
		
			<rect x="618.76" y="2957.055" transform="matrix(-0.9806 -0.1958 0.1958 -0.9806 664.6216 5983.3726)" fill="#FFCD7A" width="18.574" height="3.562"/>
		
			<rect x="616.224" y="2974.374" transform="matrix(-0.9806 -0.1958 0.1958 -0.9806 743.9217 6025.8457)" fill="#C7E3EF" width="107.121" height="3.562"/>
		
			<rect x="613.96" y="2981.501" transform="matrix(-0.9806 -0.1958 0.1958 -0.9806 650.3268 6030.8506)" fill="#FFCD7A" width="18.574" height="3.562"/>
		
			<rect x="611.374" y="2999.069" transform="matrix(-0.9806 -0.1958 0.1958 -0.9806 729.4803 6073.8086)" fill="#C7E3EF" width="107.121" height="3.562"/>
		
			<rect x="609.118" y="3006.198" transform="matrix(-0.9806 -0.1958 0.1958 -0.9806 635.9014 6078.8188)" fill="#FFCD7A" width="18.574" height="3.562"/>
		
			<rect x="606.333" y="3023.467" transform="matrix(-0.9806 -0.1958 0.1958 -0.9806 714.6849 6121.1455)" fill="#C7E3EF" width="107.12" height="3.562"/>
		
			<rect x="580.091" y="2974.887" transform="matrix(-0.9806 -0.1958 0.1958 -0.9806 584.5388 6011.1211)" fill="#C7E3EF" width="18.574" height="3.563"/>
		
			<rect x="575.011" y="3000.069" transform="matrix(-0.9806 -0.1958 0.1958 -0.9806 569.5486 6060.002)" fill="#C7E3EF" width="18.574" height="3.562"/>
		<path fill="#C7E3EF" d="M589.514,3074.573c0.254-1.272-0.509-2.545-1.781-2.799l4.071-20.863c1.271,0.254,2.544-0.509,2.799-1.781
			c0.254-1.272-0.51-2.544-1.781-2.799c-1.272-0.255-2.545,0.509-2.799,1.781c-0.255,1.018,0.254,2.035,1.018,2.544l-4.325,21.118
			c-1.018,0.254-1.781,0.763-1.781,1.78c-0.255,1.018,0.255,2.036,1.018,2.545l-4.071,20.1c-1.018,0.255-1.78,0.764-1.78,1.781
			c-0.255,1.018,0.254,2.035,1.018,2.544l-2.799,14.503l0.764,0.254l2.798-14.248c1.272,0.255,2.545-0.509,2.799-1.781
			c0.255-1.271-0.508-2.544-1.78-2.798l4.07-19.846C587.988,3076.608,589.26,3075.845,589.514,3074.573z M590.786,3048.366
			c0.255-0.763,1.019-1.271,1.781-1.018c0.764,0.255,1.272,1.018,1.018,1.781c-0.254,0.764-1.018,1.272-1.78,1.018
			C591.295,3049.894,590.786,3049.13,590.786,3048.366z M585.952,3073.81c0.255-0.764,1.018-1.272,1.781-1.018
			c0.763,0.254,1.272,1.018,1.018,1.781c-0.255,0.763-1.018,1.271-1.781,1.018C586.207,3075.336,585.698,3074.573,585.952,3073.81z
			 M583.662,3098.744c-0.254,0.763-1.018,1.271-1.781,1.018c-0.763-0.255-1.271-1.018-1.018-1.781
			c0.255-0.764,1.018-1.272,1.781-1.018C583.408,3097.217,583.917,3097.98,583.662,3098.744z"/>
		
			<rect x="566.368" y="3043.588" transform="matrix(-0.9806 -0.1958 0.1958 -0.9806 543.9081 6144.5039)" fill="#C7E3EF" width="18.574" height="3.562"/>
		
			<rect x="600.188" y="3050.45" transform="matrix(-0.9806 -0.1958 0.1958 -0.9806 609.5505 6164.7188)" fill="#FFCD7A" width="18.574" height="3.563"/>
		
			<rect x="597.652" y="3067.769" transform="matrix(-0.9806 -0.1958 0.1958 -0.9806 688.8218 6207.1919)" fill="#C7E3EF" width="107.121" height="3.562"/>
		
			<rect x="595.387" y="3074.895" transform="matrix(-0.9806 -0.1958 0.1958 -0.9806 595.2557 6212.1963)" fill="#FFCD7A" width="18.574" height="3.563"/>
		
			<rect x="592.552" y="3092.414" transform="matrix(-0.9806 -0.1958 0.1958 -0.9806 673.9246 6255.0063)" fill="#C7E3EF" width="107.121" height="3.562"/>
		
			<rect x="590.296" y="3099.544" transform="matrix(-0.9806 -0.1958 0.1958 -0.9806 580.3447 6260.0181)" fill="#FFCD7A" width="18.574" height="3.562"/>
		
			<rect x="587.71" y="3117.112" transform="matrix(-0.9806 -0.1958 0.1958 -0.9806 659.4704 6302.9761)" fill="#C7E3EF" width="107.121" height="3.562"/>
		
			<rect x="561.268" y="3068.233" transform="matrix(-0.9806 -0.1958 0.1958 -0.9806 528.9822 6192.3198)" fill="#C7E3EF" width="18.574" height="3.562"/>
		
			<rect x="556.438" y="3093.464" transform="matrix(-0.9806 -0.1958 0.1958 -0.9806 514.4756 6241.3467)" fill="#C7E3EF" width="18.574" height="3.562"/>
		
			<rect x="491.801" y="2920.406" transform="matrix(-0.9806 -0.1958 0.1958 -0.9806 449.0978 5888.7656)" fill="#C7E3EF" width="47.581" height="3.563"/>
		
			<rect x="488.249" y="2938.483" transform="matrix(-0.9806 -0.1958 0.1958 -0.9806 438.4635 5923.873)" fill="#C7E3EF" width="47.581" height="3.562"/>
		
			<rect x="484.964" y="2956.058" transform="matrix(-0.9806 -0.1958 0.1958 -0.9806 447.1634 5959.8828)" fill="#C7E3EF" width="66.409" height="3.562"/>
		
			<rect x="475.781" y="3000.84" transform="matrix(-0.9806 -0.1958 0.1958 -0.9806 395.9936 6044.3896)" fill="#C7E3EF" width="41.984" height="3.562"/>
		
			<rect x="472.464" y="3017.381" transform="matrix(-0.9806 -0.1958 0.1958 -0.9806 381.4427 6076.0303)" fill="#C7E3EF" width="37.149" height="3.562"/>
		
			<rect x="470.706" y="3025.499" transform="matrix(-0.9806 -0.1958 0.1958 -0.9806 376.3716 6091.7651)" fill="#C7E3EF" width="37.149" height="3.562"/>
		
			<rect x="469.182" y="3033.936" transform="matrix(-0.9806 -0.1958 0.1958 -0.9806 373.725 6108.3779)" fill="#C7E3EF" width="39.184" height="3.562"/>
		
			<rect x="460.782" y="3075.394" transform="matrix(-0.9807 -0.1958 0.1958 -0.9807 342.2399 6188.1787)" fill="#C7E3EF" width="32.315" height="3.563"/>
		
			<rect x="457.461" y="3092.192" transform="matrix(-0.9806 -0.1958 0.1958 -0.9806 332.3526 6220.7969)" fill="#C7E3EF" width="32.314" height="3.562"/>
		
			<rect x="503.776" y="3084.029" transform="matrix(-0.9806 -0.1958 0.1958 -0.9806 425.593 6213.6924)" fill="#C7E3EF" width="32.314" height="3.562"/>
		
			<rect x="500.452" y="3100.826" transform="matrix(-0.9806 -0.1958 0.1958 -0.9806 415.7405 6246.313)" fill="#C7E3EF" width="32.315" height="3.562"/>
		
			<rect x="473.981" y="3010.26" transform="matrix(-0.9806 -0.1958 0.1958 -0.9806 399.7466 6063.5962)" fill="#C7E3EF" width="51.143" height="3.563"/>
		
			<rect x="477.071" y="3057.048" transform="matrix(-0.9806 -0.1958 0.1958 -0.9806 398.7635 6161.4023)" fill="#2A74D4" width="53.689" height="7.888"/>
		
			<rect x="492.304" y="2981.514" transform="matrix(-0.9806 -0.1958 0.1958 -0.9806 443.6626 6015.2832)" fill="#2A74D4" width="53.688" height="8.397"/>
		<g>
			<path fill="#FFFFFF" d="M591.295,2814.037c-1.78,9.159-6.869,16.792-13.738,22.135c-0.255,0.255-0.764,0.509-1.019,0.764
				l-53.938-10.687c-0.255-0.509-0.764-1.018-1.018-1.78c-4.071-7.379-5.598-16.284-3.816-25.188
				c4.07-20.354,23.661-33.585,44.016-29.515C582.135,2773.837,595.366,2793.683,591.295,2814.037z"/>
			<path fill="#2089F7" d="M577.556,2836.172c-8.396,6.361-19.337,9.414-30.277,7.124c-11.195-2.29-20.354-9.413-25.443-18.827
				c9.668-2.545,19.082-1.781,19.082-1.781l13.739,2.799c0,0,12.213,0,21.372,8.65
				C576.538,2834.646,577.047,2835.409,577.556,2836.172z"/>
			<path fill="#FFA0BD" d="M561.527,2827.776c0,0-2.799,8.396-12.213,6.36s-9.159-8.905-9.159-8.905l2.798-9.668l1.019-3.054
				l17.81,2.799l-0.254,10.432V2827.776z"/>
			<path opacity="0.5" fill="#F182A6" enable-background="new    " d="M561.527,2825.486c-11.704,0.254-16.793-6.87-18.574-9.923
				l1.019-3.054l17.81,2.799L561.527,2825.486z"/>
			<path fill="#284D99" d="M539.9,2801.569c0,0-3.308-3.562-1.271-9.668c2.544-7.633,7.633-6.106,7.633-6.106
				s10.177-11.704,23.407-6.106c13.23,5.344,2.035,13.994,2.035,13.994s4.325,1.78,3.308,6.36c-1.018,4.325-7.633,6.87-7.633,6.87
				l-7.633,5.088l-8.905-3.053l-8.65-2.544L539.9,2801.569z"/>
			<path fill="#FFA0BD" d="M543.208,2807.931c0,0,0.255,11.194,8.65,13.739c0,0,7.633,1.018,10.94-9.414
				c0,0,3.563,1.272,4.326-3.308c0.763-4.325-3.563-2.035-3.563-2.035s-0.509-2.799,0-5.344c0,0-10.686-1.271-13.739-9.668
				l-1.781,1.018c0,0-0.763,9.923-5.089,11.704c0,0,0.764-3.308-1.018-4.071c-1.526-0.763-4.07,2.799-2.544,5.853
				C541.173,2809.711,543.208,2807.931,543.208,2807.931z"/>
		</g>
		
			<rect x="595.37" y="2843.568" transform="matrix(-0.9806 -0.1958 0.1958 -0.9806 771.9648 5778.2031)" fill="#2089F7" width="152.412" height="14.757"/>
		<g>
			<path fill="#FFFFFF" d="M614.957,2794.954l1.781,12.722l6.615-10.94l4.325,0.764l-3.308,16.283l-3.308-0.764l0.764-4.579
				l1.78-7.633l-6.869,11.194l-2.29-0.509l-2.035-12.976l-1.272,7.633l-0.763,4.58l-3.308-0.764l3.308-16.283L614.957,2794.954z"/>
			<path fill="#FFFFFF" d="M635.82,2806.658l4.834-6.615l3.563,0.764l-7.379,9.414l-1.271,5.852l-3.308-0.764l1.271-5.852
				l-3.308-11.449l3.563,0.763L635.82,2806.658z"/>
			<path fill="#FFFFFF" d="M664.062,2816.836l4.579-11.195l3.308,0.764l-6.869,15.52l-3.308-0.763l-0.509-11.449l-4.834,10.432
				l-3.308-0.764l-0.255-17.047l3.308,0.764v11.958l5.089-10.94l2.799,0.509V2816.836z"/>
			<path fill="#FFFFFF" d="M686.707,2818.107c-0.255,1.526-0.764,3.054-1.781,4.071c-0.764,1.018-1.781,1.781-3.054,2.29
				s-2.544,0.509-3.816,0.254c-1.272-0.254-2.544-0.763-3.308-1.781c-1.018-0.763-1.526-2.035-1.781-3.308
				c-0.254-1.271-0.254-2.798,0-4.325l0.255-0.763c0.255-1.526,1.018-3.054,1.781-4.071c0.763-1.018,1.78-1.781,3.053-2.29
				s2.544-0.509,3.816-0.254c1.272,0.254,2.545,0.763,3.308,1.78c1.018,0.764,1.527,2.036,1.781,3.309
				c0.254,1.271,0.254,2.798,0,4.325L686.707,2818.107z M683.398,2816.581c0.255-1.781,0.255-3.053-0.254-4.071
				c-0.509-1.018-1.272-1.526-2.29-1.78c-1.018-0.255-2.035,0-2.799,0.763c-0.763,0.764-1.272,2.036-1.78,3.563l-0.255,0.763
				c-0.255,1.781-0.255,3.054,0.255,4.071c0.508,1.018,1.271,1.781,2.289,1.781c1.018,0.254,2.035,0,2.799-0.764
				s1.272-2.035,1.781-3.562L683.398,2816.581z"/>
			<path fill="#FFFFFF" d="M695.866,2821.924l-2.799-0.509l-1.272,5.853l-3.308-0.764l3.308-16.283l6.106,1.271
				c2.035,0.509,3.308,1.018,4.325,2.29c0.764,1.018,1.272,2.29,0.764,4.071c-0.255,1.018-0.764,2.035-1.272,2.544
				c-0.509,0.764-1.526,1.018-2.544,1.272l2.289,7.378v0.255l-3.562-0.764L695.866,2821.924z M693.83,2818.616l2.799,0.509
				c0.764,0.255,1.527,0,2.036-0.254c0.509-0.255,1.018-0.764,1.018-1.526c0.254-0.764,0-1.527-0.255-2.036
				c-0.254-0.509-1.018-0.763-1.781-1.018l-2.799-0.509L693.83,2818.616z"/>
			<path fill="#FFFFFF" d="M710.877,2824.214l-2.035,1.526l-1.018,4.58l-3.308-0.764l3.308-16.283l3.308,0.764l-1.526,7.378
				l1.781-1.781l5.343-4.579l4.07,0.763l-7.124,6.106l4.071,10.178l-4.071-0.764L710.877,2824.214z"/>
			<path fill="#FFFFFF" d="M613.176,2832.864l-6.36-1.271l-0.763,4.325l7.633,1.526l-0.51,2.799l-10.939-2.29l3.307-16.283
				l10.941,2.29l-0.51,2.798l-7.633-1.526l-0.763,3.816l6.36,1.272L613.176,2832.864z"/>
			<path fill="#FFFFFF" d="M623.862,2831.084l4.071-5.089l3.816,0.763l-6.361,7.125l3.308,9.159l-3.816-0.764l-2.035-6.36
				l-4.325,5.088l-3.816-0.763l6.615-7.124l-3.054-8.905l3.816,0.764L623.862,2831.084z"/>
			<path fill="#FFFFFF" d="M636.075,2838.717l-1.272,5.852l-3.308-0.764l3.308-16.283l6.361,1.272
				c1.271,0.254,2.289,0.763,3.053,1.271s1.526,1.527,1.781,2.29c0.254,1.018,0.509,2.036,0.254,3.054
				c-0.254,1.526-1.018,2.799-2.289,3.562c-1.272,0.764-2.799,0.764-4.835,0.509L636.075,2838.717z M636.584,2836.172l3.053,0.509
				c0.764,0.255,1.527,0,2.035-0.254c0.51-0.255,1.019-0.764,1.019-1.526c0.254-0.764,0-1.527-0.255-2.036
				c-0.254-0.509-1.018-1.018-1.781-1.271l-3.053-0.509L636.584,2836.172z"/>
			<path fill="#FFFFFF" d="M658.719,2842.024l-6.36-1.272l-0.763,4.325l7.633,1.526l-0.51,2.799l-10.939-2.29l3.307-16.283
				l10.941,2.29l-0.51,2.799l-7.633-1.526l-0.763,3.816l6.36,1.271L658.719,2842.024z"/>
			<path fill="#FFFFFF" d="M668.896,2845.077l-2.799-0.509l-1.272,5.852l-3.308-0.509l3.308-16.283l6.106,1.272
				c2.035,0.509,3.308,1.018,4.325,2.289c0.764,1.019,1.272,2.29,0.764,4.071c-0.255,1.018-0.764,2.035-1.272,2.544
				c-0.509,0.764-1.526,1.018-2.544,1.272l2.29,7.379v0.254l-3.563-0.763L668.896,2845.077z M666.861,2841.77l2.799,0.509
				c0.763,0.255,1.526,0,2.035-0.254c0.509-0.255,1.018-0.764,1.018-1.527c0.254-0.763,0-1.526-0.255-2.035
				c-0.254-0.509-1.018-0.764-1.78-1.018l-2.799-0.509L666.861,2841.77z"/>
			<path fill="#FFFFFF" d="M681.109,2853.728l-3.308-0.763l3.308-16.284l3.308,0.764L681.109,2853.728z"/>
			<path fill="#FFFFFF" d="M696.375,2849.402l-6.361-1.271l-0.763,4.325l7.633,1.526l-0.509,2.799l-10.94-2.29l3.308-16.283
				l10.94,2.289l-0.509,2.799l-7.633-1.526l-0.764,3.816l6.361,1.272L696.375,2849.402z"/>
			<path fill="#FFFFFF" d="M712.658,2860.089l-3.308-0.764l-4.579-11.958l-2.036,10.686l-3.308-0.763l3.308-16.284l3.308,0.764
				l4.325,11.958l2.036-10.686l3.307,0.763L712.658,2860.089z"/>
			<path fill="#FFFFFF" d="M730.469,2858.053c-0.51,1.781-1.527,3.054-2.799,3.816c-1.272,0.764-3.054,1.019-4.834,0.51
				c-2.036-0.51-3.563-1.527-4.58-3.054s-1.018-3.816-0.764-6.106l0.255-1.018c0.255-1.526,0.763-2.799,1.781-4.07
				c0.763-1.019,1.78-1.781,2.799-2.29c1.271-0.509,2.29-0.509,3.816-0.255c1.78,0.255,3.308,1.272,4.325,2.545
				c1.018,1.271,1.271,2.798,1.271,4.579l-3.307-0.763c0.254-1.019,0-1.781-0.51-2.545c-0.509-0.509-1.018-1.018-2.035-1.271
				c-1.018-0.255-2.035,0-2.799,0.763c-0.763,0.764-1.271,1.781-1.526,3.563l-0.255,1.271c-0.254,1.781-0.254,3.054,0,4.071
				c0.255,1.018,1.019,1.526,2.29,1.781c1.019,0.254,1.781,0,2.545-0.255c0.509-0.255,1.018-1.018,1.271-2.035L730.469,2858.053z"/>
			<path fill="#FFFFFF" d="M743.953,2858.816l-6.36-1.272l-0.764,4.325l7.633,1.527l-0.509,2.799l-10.94-2.29l3.308-16.284
				l10.94,2.29l-0.509,2.799l-7.633-1.526l-0.764,3.816l6.361,1.272L743.953,2858.816z"/>
		</g>
	</g>
	<path fill="#FFA0BD" d="M492.322,2928.275c0,0-14.248,6.87-24.171,11.195l-0.255,0.254h0.255l-6.615,34.603l-23.407,115.003
		c-9.16,0-16.538-0.764-23.408-1.781c-26.206-4.58-47.832-10.432-63.607-12.976c-3.308-0.51-6.36-1.019-9.159-1.272
		c-0.764,0-1.526,0-2.29-0.255c-1.526,0-4.834,0-9.414,0c-30.531,0.255-118.818,2.545-118.818,2.545l-2.545-106.86l106.353,1.271
		l13.23,0.255l7.633-0.509l21.626-1.018c0,0,23.917-20.863,40.2-40.2c16.283-19.591,17.047-20.354,37.655-27.733
		c17.556-6.105,33.84-12.721,43.508-16.283c1.781-0.764,3.563-1.272,4.834-1.781c8.396-2.799,10.178,1.018,27.987,9.669
		c17.811,8.65,33.585,11.703,42.235,13.484C562.545,2907.667,548.805,2945.068,492.322,2928.275z"/>
	<path fill="#FFFFFF" d="M357.474,2968.73c6.869-6.87,13.739-13.485,20.354-20.609c6.614-6.869,12.976-14.248,19.082-21.626
		c3.053-3.816,6.106-7.634,9.159-11.195c3.308-3.562,7.124-7.378,11.449-9.923c4.58-2.544,9.16-4.07,13.739-5.852l13.485-4.834
		c9.159-3.308,18.064-6.87,26.969-10.178l6.87-2.544c2.29-0.764,4.58-1.781,7.378-2.29c2.799-0.509,5.853,0,8.396,1.018
		c2.545,1.018,4.58,2.29,6.615,3.563c8.396,4.834,16.793,9.159,25.697,12.721c8.905,3.563,18.064,6.106,27.479,8.651
		c-9.668-1.527-19.082-3.563-28.241-6.361c-9.16-3.053-18.319-7.124-26.716-11.703c-2.035-1.019-4.325-2.29-6.36-3.054
		s-3.816-1.018-5.852-0.509c-2.036,0.509-4.325,1.272-6.615,2.29l-6.615,2.544c-8.905,3.563-18.064,7.124-26.97,10.432
		l-13.739,4.834c-4.58,1.527-8.905,3.308-12.976,5.344c-4.071,2.035-7.379,5.088-10.687,8.65c-3.308,3.562-6.36,7.124-9.414,10.686
		C386.988,2943.541,372.485,2956.518,357.474,2968.73z"/>
	<path fill="#FFA0BD" d="M2137.465,2973.818v102.026h-152.403c-65.897,1.527-101.009-20.863-105.079-22.39c0,0,0,0-0.255,0l0,0
		c-4.325-1.271-7.888-3.308-10.686-5.852c-2.036-1.781-3.563-4.071-4.58-6.615c-2.29-5.343-1.781-10.178-0.509-13.994
		c1.271-4.325,3.563-7.124,3.563-7.124c-13.994-8.65-13.23-20.354-10.941-27.732c1.272-4.071,3.054-6.615,3.054-6.615
		s-9.414-5.598-10.94-21.881c-0.509-6.106,1.018-10.687,3.053-13.993c3.563-5.344,8.651-7.125,8.651-7.125
		c-7.124-5.343-11.45-12.976-12.976-20.608c-2.545-12.467,2.035-24.68,12.976-27.224c5.343-1.272,11.704-1.781,18.064-2.29h43.507
		c-4.325-8.142-5.088-16.283-5.088-16.283s-8.143-5.344-19.592-34.603c-12.467-31.804,8.65-51.904,20.101-58.011
		c0.254,0,0.254,0,0.509-0.254c7.379-3.308,15.266,2.29,15.266,10.432c0,15.266,7.633,37.401,13.484,49.613
		c5.852,12.468,34.857,40.709,43.508,49.105h0.254c6.87,6.106,13.23,13.993,18.574,24.934
		c10.432,21.372,22.898,35.111,33.584,43.508c1.527,1.272,3.054,2.29,4.58,3.308c2.035,1.526,4.325,2.799,6.106,3.816l0,0
		c0.509,0.255,1.018,0.509,1.526,0.764c0.764,0.254,1.272,0.763,1.781,1.018c1.018,0.509,2.544,1.018,4.325,1.271
		c4.325,1.019,10.687,1.527,18.064,2.036c0,0,0,0,0.255,0C2100.318,2974.327,2128.051,2974.073,2137.465,2973.818z"/>
	<path fill="#FFFFFF" d="M1933.158,2793.683c0.764,9.923,3.563,19.337,6.869,28.496c1.527,4.579,3.308,9.159,5.344,13.484
		c1.018,2.29,2.035,4.325,3.053,6.615c1.018,2.035,2.29,4.071,3.816,5.853c5.598,7.633,12.467,14.757,19.082,21.881
		c6.87,7.124,13.739,13.993,20.609,20.863l-1.781-0.764h0.254h1.018l0.764,0.509c5.598,5.089,10.432,10.94,14.248,17.047
		c2.035,3.053,3.563,6.615,5.089,9.668c1.526,3.308,3.053,6.361,4.834,9.414c3.562,6.36,7.378,12.213,11.704,18.064
		c4.325,5.598,9.159,10.94,14.756,15.774c-6.105-4.07-11.449-9.159-16.283-14.502s-9.414-11.195-13.23-17.556
		c-2.035-3.054-3.816-6.36-5.343-9.414c-1.78-3.308-3.308-6.36-5.343-9.159c-3.816-5.853-8.396-11.195-13.739-15.775l1.526,0.51
		h-0.254h-1.018l-0.764-0.764c-7.124-6.869-14.248-13.739-20.863-20.863c-3.308-3.563-6.615-7.124-9.923-10.94
		s-6.36-7.633-9.159-11.704c-1.527-2.035-2.799-4.325-3.816-6.615c-1.018-2.289-2.035-4.579-2.799-6.869
		c-1.781-4.58-3.308-9.414-4.58-14.248c-1.271-4.834-2.29-9.669-3.053-14.503
		C1933.158,2803.605,1932.904,2798.771,1933.158,2793.683z"/>
	<path fill="#F182A6" d="M1952.494,3006.641l3.563-3.563c12.467-16.029-4.58-27.224-6.106-27.987v-0.255
		c6.87-22.898-7.378-30.022-7.378-30.022c0.509-6.106-0.51-10.94-2.035-14.757c1.271-7.124,3.816-15.774,9.413-22.39
		c0,0-9.923,4.071-13.484,15.521c-2.799-3.308-6.106-5.344-8.905-6.615c-13.484-9.414-66.151-9.414-66.151-9.414
		s40.2,9.414,57.247,14.248c12.975,3.816,14.502,13.484,14.502,18.064c0,0.764,0,1.781-0.254,2.544c0,0-37.147,11.449-72.004,0.509
		c0,0-5.089,1.781-8.65,7.124c13.993,5.089,47.323,14.503,80.145,0c0,0,16.029,2.29,8.396,25.443c0,0-24.68,20.354-80.399,10.432
		c0,0-1.781,2.544-3.054,6.615c19.337,4.58,58.773,10.432,84.98-10.94c0,0,17.301,3.562,2.035,26.461
		c0,0-16.793,14.248-76.075,12.212c0,0-2.29,2.799-3.562,7.124c13.23,2.036,48.596,5.344,77.092-9.922c0,0,4.834,3.053,4.07,9.413
		c-0.763,6.361-2.289,17.047-28.75,23.153c-18.573,4.325-36.383,1.526-47.578-2.035c2.544,2.544,6.106,4.325,10.686,5.852l0,0
		c0,0,0,0,0.255,0c19.082,6.361,63.607-2.799,70.985-17.81c2.291-4.58,2.799-8.651,2.291-11.959
		c8.65,8.651,23.152,18.573,39.436,23.153C1992.695,3046.84,1956.056,3027.249,1952.494,3006.641z"/>
	<path fill="#F182A6" d="M2137.465,2973.818v102.026h-85.742l27.732-102.789c0,0,0,0,0.254,0
		C2100.318,2974.327,2128.051,2974.073,2137.465,2973.818z"/>
	<path opacity="0.5" fill="#F182A6" enable-background="new    " d="M468.151,2939.725l-6.615,34.603
		c-38.165,47.07-87.27,48.342-87.27,48.342c64.371-9.414,93.63-82.689,93.63-82.944H468.151z"/>
	<path opacity="0.5" fill="#F182A6" enable-background="new    " d="M644.98,2993.155c-0.51,0.255-1.018,0.255-1.272,0.255
		L644.98,2993.155z"/>
	<rect x="2087.952" y="2965.723" fill="#FFFFFF" width="76.074" height="115.257"/>
	<rect x="2109.732" y="2964.404" fill="#284D99" width="299.719" height="131.795"/>
	<rect x="2109.732" y="2961.606" fill="#FFFFFF" width="299.719" height="4.07"/>
	<rect x="2109.732" y="3048.875" fill="#213F84" width="299.719" height="47.07"/>
	<ellipse fill="#193670" cx="2137.365" cy="3086.947" rx="12.468" ry="12.468"/>
	<ellipse fill="#193670" cx="2170.451" cy="3086.971" rx="12.467" ry="12.467"/>
	<rect x="1913.312" y="3035.137" fill="#F182A6" width="6.869" height="6.869"/>
	<rect x="1920.181" y="3028.521" fill="#F182A6" width="6.87" height="6.869"/>
	<rect x="2061.836" y="3019.171" fill="#F182A6" width="6.869" height="6.869"/>
	<rect x="2055.22" y="3012.216" fill="#F182A6" width="6.869" height="6.87"/>
	<g opacity="0.5">
		
			<rect x="1962.177" y="2916.983" transform="matrix(-0.7071 -0.7071 0.7071 -0.7071 1290.3354 6375.0566)" fill="#FFFFFF" width="6.615" height="6.615"/>
		
			<rect x="1971.565" y="2917.047" transform="matrix(-0.7071 -0.7071 0.7071 -0.7071 1306.3163 6381.8027)" fill="#FFFFFF" width="6.615" height="6.615"/>
		
			<rect x="1971.502" y="2926.435" transform="matrix(-0.7071 -0.7071 0.7071 -0.7071 1299.5697 6397.7837)" fill="#FFFFFF" width="6.615" height="6.615"/>
		
			<rect x="1980.89" y="2926.498" transform="matrix(-0.7072 -0.707 0.707 -0.7072 1315.9139 6404.5991)" fill="#FFFFFF" width="6.615" height="6.615"/>
		
			<rect x="1981.006" y="2935.705" transform="matrix(-0.707 -0.7072 0.7072 -0.707 1308.876 6420.2598)" fill="#FFFFFF" width="6.615" height="6.615"/>
		
			<rect x="1990.214" y="2935.589" transform="matrix(-0.7071 -0.7071 0.7071 -0.7071 1325.04 6426.6426)" fill="#FFFFFF" width="6.615" height="6.615"/>
	</g>
	<g opacity="0.5">
		
			<rect x="448.137" y="2917.052" transform="matrix(0.7071 -0.7071 0.7071 0.7071 -1932.7805 1174.5734)" fill="#FFFFFF" width="6.615" height="6.615"/>
		
			<rect x="438.876" y="2916.989" transform="matrix(0.7071 -0.7071 0.7071 0.7071 -1935.4492 1168.0061)" fill="#FFFFFF" width="6.615" height="6.615"/>
		
			<rect x="438.813" y="2926.25" transform="matrix(0.707 -0.7072 0.7072 0.707 -1942.1997 1170.9226)" fill="#FFFFFF" width="6.615" height="6.615"/>
		
			<rect x="429.551" y="2926.187" transform="matrix(0.7071 -0.7071 0.7071 0.7071 -1944.6836 1164.1067)" fill="#FFFFFF" width="6.615" height="6.615"/>
		
			<rect x="429.488" y="2935.448" transform="matrix(0.7071 -0.7071 0.7071 0.7071 -1951.2512 1166.7744)" fill="#FFFFFF" width="6.615" height="6.615"/>
		
			<rect x="420.048" y="2935.564" transform="matrix(0.7071 -0.7071 0.7071 0.7071 -1954.0986 1160.1329)" fill="#FFFFFF" width="6.615" height="6.615"/>
	</g>
	<rect x="2087.851" y="3041.497" fill="#DDF3FF" width="21.881" height="39.69"/>
	<g>
		<path fill="#FFCD7A" d="M451.359,2837.953c-10.432,0-19.083-8.396-19.083-19.082c0-10.432,8.396-19.082,19.083-19.082
			c10.686,0,19.082,8.396,19.082,19.082C470.441,2829.557,462.045,2837.953,451.359,2837.953z M451.359,2805.132
			c-7.633,0-13.994,6.36-13.994,13.993s6.361,13.994,13.994,13.994s13.993-6.361,13.993-13.994S459.246,2805.132,451.359,2805.132z"
			/>
	</g>
	<circle fill="#B6DCFF" cx="752.349" cy="2746.867" r="9.159"/>
	<circle fill="#B6DCFF" cx="204.307" cy="2925.985" r="7.124"/>
	<circle fill="#B6DCFF" cx="395.638" cy="3109.938" r="9.159"/>
	<g>
		<path fill="#FFCD7A" d="M1809.76,2927.004c-7.633,0-13.994-6.361-13.994-13.994s6.361-13.993,13.994-13.993
			s13.993,6.36,13.993,13.993C1824.008,2920.897,1817.646,2927.004,1809.76,2927.004z M1809.76,2902.833
			c-5.598,0-10.178,4.579-10.178,10.177s4.58,10.178,10.178,10.178s10.177-4.58,10.177-10.178
			C1820.191,2907.412,1815.611,2902.833,1809.76,2902.833z"/>
	</g>
	<g>
		<g>
			<path fill="#B6DCFF" d="M1926.797,3118.08c-7.123,0-12.721-5.852-12.721-12.722c0-7.124,5.852-12.721,12.721-12.721
				c7.125,0,12.722,5.852,12.722,12.721C1939.773,3112.229,1933.922,3118.08,1926.797,3118.08z M1926.797,3095.945
				c-5.088,0-9.414,4.325-9.414,9.414c0,5.088,4.326,9.413,9.414,9.413c5.089,0,9.414-4.325,9.414-9.413
				C1936.211,3100.271,1932.14,3095.945,1926.797,3095.945z"/>
		</g>
	</g>
	<circle fill="#B6DCFF" cx="2338.973" cy="2938.961" r="6.87"/>
	<circle fill="#B6DCFF" cx="1832.913" cy="2767.476" r="3.307"/>
	<circle fill="#B6DCFF" cx="1813.322" cy="2837.953" r="3.308"/>
	<circle fill="#FFFFFF" cx="2021.191" cy="2879.934" r="3.307"/>
	<circle fill="#FFCD7A" cx="2262.899" cy="3096.199" r="9.159"/>
	<polygon fill="#FFCD7A" points="801.454,2922.169 806.797,2927.513 814.43,2925.986 810.868,2932.855 814.43,2939.471 
		807.052,2938.198 801.963,2943.796 800.691,2936.418 793.821,2933.109 800.436,2929.548 	"/>
	<polygon fill="#B6DCFF" points="1904.662,2733.892 1909.75,2738.98 1916.365,2737.708 1913.312,2743.814 1916.62,2749.921 
		1909.75,2748.902 1904.916,2753.991 1903.898,2747.122 1897.538,2744.068 1903.898,2741.016 	"/>
	<polygon fill="#FFCD7A" points="2034.166,2846.604 2033.658,2850.929 2036.711,2853.728 2032.385,2854.491 2030.859,2858.562 
		2028.569,2854.745 2024.244,2854.236 2027.297,2851.184 2026.279,2846.858 2030.349,2848.64 	"/>
	<polygon fill="#FFCD7A" points="1863.953,2832.102 1863.444,2836.427 1866.752,2839.226 1862.427,2839.988 1860.645,2844.06 
		1858.355,2840.243 1854.03,2839.734 1857.084,2836.681 1856.066,2832.355 1860.136,2834.137 	"/>
	<polygon fill="#B6DCFF" points="1969.033,2804.877 1968.523,2809.202 1971.832,2812.256 1967.506,2813.02 1965.724,2816.836 
		1963.689,2813.02 1959.364,2812.765 1962.418,2809.457 1961.4,2805.132 1965.47,2807.167 	"/>
	<polygon fill="#B6DCFF" points="1959.619,2749.921 1959.364,2752.719 1961.4,2754.755 1958.601,2755.264 1957.329,2758.063 
		1956.056,2755.518 1953.004,2755.264 1955.039,2752.974 1954.53,2750.175 1957.074,2751.447 	"/>
	<polygon fill="#B6DCFF" points="740.645,3076.862 745.988,3082.206 753.367,3080.934 750.059,3087.549 753.621,3094.418 
		746.243,3093.146 740.9,3098.744 739.628,3091.11 733.012,3088.058 739.628,3084.496 	"/>
	<rect x="418.792" y="3061.088" fill="#F182A6" width="6.869" height="6.87"/>
	<rect x="425.661" y="3054.219" fill="#F182A6" width="6.87" height="6.869"/>
	<rect x="318.419" y="2994.809" fill="#F182A6" width="6.87" height="6.87"/>
	<rect x="325.119" y="3001.424" fill="#F182A6" width="6.87" height="6.87"/>
	<path fill="#F182A6" d="M329.996,3073.046c-30.531,0.255-118.819,2.545-118.819,2.545l-2.544-106.86l106.352,1.271
		L329.996,3073.046z"/>
	<rect x="0" y="2963.642" fill="#3E9DFF" width="244.253" height="132.304"/>
	<rect x="0" y="2961.606" fill="#FFFFFF" width="244.253" height="4.07"/>
	<rect x="0" y="3041.242" fill="#2089F7" width="244.253" height="54.703"/>
	<circle fill="#B6DCFF" cx="75.82" cy="3096.199" r="13.739"/>
	<path fill="#D9F3FF" d="M299.21,3084.496h-31.295c-2.799,0-5.089-2.29-5.089-5.089v-114.748c0-2.799,2.29-5.089,5.089-5.089h31.295
		c2.799,0,5.089,2.29,5.089,5.089v114.748C304.299,3082.206,302.009,3084.496,299.21,3084.496z"/>
	<path fill="#FFFFFF" d="M299.21,2992.138h-31.295c-2.799,0-5.089,2.29-5.089,5.089v82.435c0,2.799,2.29,5.089,5.089,5.089h31.295
		c2.799,0,5.089-2.29,5.089-5.089v-82.435C304.299,2994.428,302.009,2992.138,299.21,2992.138z"/>
	<path fill="#B9DDEA" d="M306.843,3064.65h-46.815c-1.018,0-1.526-0.764-1.526-1.527v-14.248c0-1.018,0.764-1.526,1.526-1.526
		h46.815c1.018,0,1.526,0.764,1.526,1.526v14.248C308.624,3063.887,307.86,3064.65,306.843,3064.65z"/>
	<path fill="#B9DDEA" d="M302.771,3005.368H285.47v-3.816c0-1.018-0.764-2.036-2.035-2.036c-1.272,0-2.036,0.764-2.036,2.036v3.816
		h-17.301c-3.563,0-6.361,2.799-6.361,6.36v14.757c0,3.563,2.799,6.361,6.361,6.361h38.673c3.563,0,6.361-2.799,6.361-6.361v-14.757
		C309.133,3008.167,306.334,3005.368,302.771,3005.368z M281.654,3029.03h-17.302c-1.526,0-2.544-1.272-2.544-2.545v-14.757
		c0-1.526,1.272-2.544,2.544-2.544h17.302V3029.03z M305.316,3026.485c0,1.526-1.272,2.545-2.545,2.545H285.47v-19.846h17.301
		c1.527,0,2.545,1.272,2.545,2.544V3026.485z"/>
</g>
</svg>
