<svg width="132" height="110" viewBox="0 0 132 110" fill="none" xmlns="http://www.w3.org/2000/svg">
<path d="M31.0696 34.531H116.619C117.52 34.531 118.257 33.7937 118.257 32.8925V22.9183C118.257 22.0171 117.52 21.2798 116.619 21.2798H31.0696C30.1685 21.2798 29.4312 22.0171 29.4312 22.9183V32.8925C29.4312 33.7937 30.1685 34.531 31.0696 34.531Z" fill="#CFFFF0"/>
<path d="M36.4971 39.8356H122.046C122.947 39.8356 123.685 39.0982 123.685 38.1971V28.2228C123.685 27.3217 122.947 26.5844 122.046 26.5844H36.4971C35.596 26.5844 34.8586 27.3217 34.8586 28.2228V38.1971C34.8586 39.0982 35.596 39.8356 36.4971 39.8356Z" fill="#CFFFF0"/>
<path d="M17.163 54.5203H99.8653C101.545 54.5203 102.917 53.1481 102.917 51.4687V34.2237C102.917 32.5442 101.545 31.172 99.8653 31.172H17.163C15.4836 31.172 14.1114 32.5442 14.1114 34.2237V51.4687C14.0909 53.1481 15.4836 54.5203 17.163 54.5203Z" fill="#CFFFF0"/>
<path d="M29.3288 65.6212H112.031C113.71 65.6212 115.083 64.2489 115.083 62.5695V55.6674C115.083 53.988 113.71 52.6157 112.031 52.6157H29.3288C27.6493 52.6157 26.2771 53.988 26.2771 55.6674V62.5695C26.2771 64.2284 27.6493 65.6212 29.3288 65.6212Z" fill="#CFFFF0"/>
<path d="M5.1407 74.7761H87.843C89.5224 74.7761 90.8946 73.4038 90.8946 71.7244V61.4634C90.8946 59.784 89.5224 58.4117 87.843 58.4117H5.1407C3.46126 58.4117 2.08903 59.784 2.08903 61.4634V71.7244C2.06855 73.3833 3.44078 74.7761 5.1407 74.7761Z" fill="#CFFFF0"/>
<path d="M42.6209 82.7227H125.323C127.003 82.7227 128.375 81.3505 128.375 79.671V75.1857C128.375 73.5063 127.003 72.134 125.323 72.134H42.6209C40.9414 72.134 39.5692 73.5063 39.5692 75.1857V79.671C39.5692 81.33 40.9414 82.7227 42.6209 82.7227Z" fill="#CFFFF0"/>
<path d="M30.4552 95.0113H114.509C116.189 95.0113 117.561 93.6391 117.561 91.9596V82.1697C117.561 80.4903 116.189 79.118 114.509 79.118H30.4552C28.7757 79.118 27.4035 80.4903 27.4035 82.1697V91.9596C27.4035 93.6186 28.7757 95.0113 30.4552 95.0113Z" fill="#CFFFF0"/>
<path d="M91.12 42.4571H17.5932C16.692 42.4571 15.9547 41.7198 15.9547 40.8186V31.6431C15.9547 30.742 16.692 30.0046 17.5932 30.0046H91.12C92.0211 30.0046 92.7584 30.742 92.7584 31.6431V40.8186C92.7584 41.7198 92.0211 42.4571 91.12 42.4571Z" fill="#E6FFFC"/>
<path d="M0 10.9778H30.8034" stroke="black" stroke-width="2" stroke-miterlimit="10"/>
<path d="M2.0481 5.20215H14.2752" stroke="black" stroke-width="2" stroke-miterlimit="10"/>
<path d="M16.7739 5.20215H24.0242" stroke="black" stroke-width="2" stroke-miterlimit="10"/>
<path d="M117.766 55.0734H132" stroke="black" stroke-width="3" stroke-miterlimit="10"/>
<path d="M118.708 60.849H124.361" stroke="black" stroke-width="3" stroke-miterlimit="10"/>
<path d="M125.508 60.849H128.866" stroke="black" stroke-width="3" stroke-miterlimit="10"/>
<path d="M28.5914 102.385H49.564" stroke="black" stroke-width="2" stroke-miterlimit="10"/>
<path d="M29.9841 108.181H38.3199" stroke="black" stroke-width="2" stroke-miterlimit="10"/>
<path d="M39.9993 108.181H44.9352" stroke="black" stroke-width="2" stroke-miterlimit="10"/>
<path d="M111.458 90.0549H29.7179C27.5879 90.0549 25.8265 88.314 25.8265 86.1635V19.4364C25.8265 17.3064 27.5674 15.545 29.7179 15.545H111.458C113.588 15.545 115.349 17.2859 115.349 19.4364V86.1635C115.349 88.314 113.588 90.0549 111.458 90.0549Z" fill="#00FFB6"/>
<path d="M50.6085 22.7339H100.377H105.293" stroke="black" stroke-width="4" stroke-miterlimit="10"/>
<path d="M108.918 48.6219V91.9801C108.918 94.1102 107.279 95.8715 105.293 95.8715H24.0651C22.0785 95.8715 20.44 94.1307 20.44 91.9801V26.6458C20.44 24.5158 22.0785 22.7544 24.0651 22.7544H35.2273" stroke="black" stroke-width="4" stroke-miterlimit="10"/>
<path d="M46.2461 52.2266H35.596C33.466 52.2266 31.7046 50.4857 31.7046 48.3352V37.6851C31.7046 35.5551 33.4455 33.7937 35.596 33.7937H46.2461C48.3761 33.7937 50.1375 35.5346 50.1375 37.6851V48.3352C50.1375 50.4652 48.3966 52.2266 46.2461 52.2266Z" fill="#05E29E"/>
<path d="M35.596 50.7928C34.2442 50.7928 33.1382 49.6869 33.1382 48.3351V37.685C33.1382 36.3333 34.2442 35.2273 35.596 35.2273H46.2461C47.5978 35.2273 48.7038 36.3333 48.7038 37.685V48.3351C48.7038 49.6869 47.5978 50.7928 46.2461 50.7928H35.596Z" fill="#FF6C88"/>
<path d="M37.1525 48.8268C35.8008 48.8268 34.6948 47.7208 34.6948 46.3691V35.7189C34.6948 34.3672 35.8008 33.2612 37.1525 33.2612H47.8027C49.1544 33.2612 50.2604 34.3672 50.2604 35.7189V46.3691C50.2604 47.7208 49.1544 48.8268 47.8027 48.8268H37.1525Z" stroke="black" stroke-miterlimit="10"/>
<path d="M83.9312 18.4329H73.281C71.151 18.4329 69.3896 16.692 69.3896 14.5415V3.89139C69.3896 1.76137 71.1305 0 73.281 0H83.9312C86.0612 0 87.8225 1.74088 87.8225 3.89139V14.5415C87.8225 16.6715 86.0817 18.4329 83.9312 18.4329Z" fill="#FF6C88"/>
<path d="M71.1305 52.2266H60.4804C58.3504 52.2266 56.589 50.4857 56.589 48.3352V37.6851C56.589 35.5551 58.3299 33.7937 60.4804 33.7937H71.1305C73.2605 33.7937 75.0219 35.5346 75.0219 37.6851V48.3352C75.0219 50.4652 73.281 52.2266 71.1305 52.2266Z" fill="#05E29E"/>
<path d="M96.0149 52.2266H85.3648C83.2348 52.2266 81.4734 50.4857 81.4734 48.3352V37.6851C81.4734 35.5551 83.2143 33.7937 85.3648 33.7937H96.0149C98.1449 33.7937 99.9063 35.5346 99.9063 37.6851V48.3352C99.9063 50.4652 98.1654 52.2266 96.0149 52.2266Z" fill="#05E29E"/>
<path d="M46.2461 78.647H35.596C33.466 78.647 31.7046 76.9061 31.7046 74.7556V64.1055C31.7046 61.9755 33.4455 60.2141 35.596 60.2141H46.2461C48.3761 60.2141 50.1375 61.955 50.1375 64.1055V74.7556C50.1375 76.8856 48.3966 78.647 46.2461 78.647Z" fill="#05E29E"/>
<path d="M71.1305 78.647H60.4804C58.3504 78.647 56.589 76.9061 56.589 74.7556V64.1055C56.589 61.9755 58.3299 60.2141 60.4804 60.2141H71.1305C73.2605 60.2141 75.0219 61.955 75.0219 64.1055V74.7556C75.0219 76.8856 73.281 78.647 71.1305 78.647Z" fill="#05E29E"/>
<path d="M96.0149 78.647H85.3648C83.2348 78.647 81.4734 76.9061 81.4734 74.7556V64.1055C81.4734 61.9755 83.2143 60.2141 85.3648 60.2141H96.0149C98.1449 60.2141 99.9063 61.955 99.9063 64.1055V74.7556C99.9063 76.8856 98.1654 78.647 96.0149 78.647Z" fill="#05E29E"/>
<path d="M44.669 62.8153L37.726 68.8367L39.5897 71.2739L53.9879 71.3149C53.9879 71.3149 56.3841 66.6862 56.3841 65.6212C56.3841 64.5562 56.2203 59.4359 56.2203 59.4359L44.669 62.8153Z" fill="#FCFCFC"/>
<path d="M54.1313 70.8847C54.1313 70.8847 55.6059 68.386 55.8312 67.833C56.0565 67.2801 56.3842 66.1946 56.3842 66.1946L56.0565 55.8517C56.0565 54.7047 55.1348 53.7831 53.9879 53.7831C52.841 53.7831 51.9193 54.7047 51.9193 55.8517" fill="#FCFCFC"/>
<path d="M54.1313 70.8847C54.1313 70.8847 55.6059 68.386 55.8312 67.833C56.0565 67.2801 56.3842 66.1946 56.3842 66.1946L56.0565 55.8517C56.0565 54.7047 55.1348 53.7831 53.9879 53.7831C52.841 53.7831 51.9193 54.7047 51.9193 55.8517" stroke="black" stroke-miterlimit="10" stroke-linecap="round" stroke-linejoin="round"/>
<path d="M52.0012 61.3201L51.8988 54.6638C51.8988 53.5169 50.9772 52.5952 49.8302 52.5952C48.6833 52.5952 47.7617 53.5169 47.7617 54.6638L47.8641 62.1803V53.906C47.8641 52.7591 46.9424 51.8374 45.7955 51.8374C44.6485 51.8374 43.7269 52.7591 43.7269 53.906L43.5221 60.2756V44.0547C43.5221 42.9077 42.6004 41.9861 41.4535 41.9861C40.3066 41.9861 39.3849 42.9077 39.3849 44.0547V55.2782L39.2416 55.9951C39.2416 55.9951 36.6405 57.695 36.4357 59.2311C36.2309 60.7672 36.661 65.1091 36.661 66.5223C36.661 67.9355 39.2825 70.8848 39.2825 70.8848" fill="#FCFCFC"/>
<path d="M52.0012 61.3201L51.8988 54.6638C51.8988 53.5169 50.9772 52.5952 49.8302 52.5952C48.6833 52.5952 47.7617 53.5169 47.7617 54.6638L47.8641 62.1803V53.906C47.8641 52.7591 46.9424 51.8374 45.7955 51.8374C44.6485 51.8374 43.7269 52.7591 43.7269 53.906L43.5221 60.2756V44.0547C43.5221 42.9077 42.6004 41.9861 41.4535 41.9861C40.3066 41.9861 39.3849 42.9077 39.3849 44.0547V55.2782L39.2416 55.9951C39.2416 55.9951 36.6405 57.695 36.4357 59.2311C36.2309 60.7672 36.661 65.1091 36.661 66.5223C36.661 67.9355 39.2825 70.8848 39.2825 70.8848" stroke="black" stroke-miterlimit="10" stroke-linecap="round" stroke-linejoin="round"/>
<path d="M42.58 45.2221V44.0957C42.58 43.6246 42.1908 43.215 41.6993 43.215H41.1463C40.6752 43.215 40.2656 43.6041 40.2656 44.0957V45.2221H42.58Z" fill="#FCFCFC" stroke="black" stroke-width="0.5" stroke-miterlimit="10" stroke-linecap="round" stroke-linejoin="round"/>
<path d="M40.5728 49.7279H42.3547Z" fill="#FCFCFC"/>
<path d="M40.5728 49.7279H42.3547" stroke="black" stroke-width="0.5" stroke-miterlimit="10" stroke-linecap="round" stroke-linejoin="round"/>
<path d="M40.5524 49.052H42.3342Z" fill="#FCFCFC"/>
<path d="M40.5524 49.052H42.3342" stroke="black" stroke-width="0.5" stroke-miterlimit="10" stroke-linecap="round" stroke-linejoin="round"/>
<path d="M40.1223 37.4393C40.1223 37.4393 36.9068 11.1417 64.8019 10.3429" stroke="black" stroke-width="2" stroke-miterlimit="10" stroke-linecap="round"/>
<path d="M63.2043 7.37317L66.7885 10.5477L64.2284 14.2343" stroke="black" stroke-width="2" stroke-miterlimit="10" stroke-linecap="round"/>
</svg>
