<svg width="542" height="599" viewBox="0 0 542 599" fill="none" xmlns="http://www.w3.org/2000/svg">
<path d="M286.6 431.8C285.3 418.5 280.3 405.7 285.9 392.3C289.5 383.7 284.2 377.7 275 377.6C272.1 377.6 269.2 377.6 266.2 377.6C256.2 377.6 252 382.7 255.1 392.3C257.3 399 258.3 405.5 257.3 412.4C256.7 416.7 255 430.9 254.5 435.1C256.7 441.2 258.9 437.6 259 444.2H270.3C275 444.2 279.6 444.2 284.3 444.2C285.4 439.1 287.5 443.6 290 438.8L289.1 436.6L286.6 431.8ZM279.5 389.1C272.5 404.5 277.6 420 278.5 435.4C278.5 435.8 278.3 436.2 278 437.4H262C263 419.8 268.5 402.6 259.8 384.6C266.7 384.6 271.5 384.3 276.2 384.8C277.5 384.9 279.9 388.3 279.5 389.1Z" fill="black" stroke="black" stroke-width="0.75" stroke-miterlimit="10"/>
<path d="M217.4 290.9C218.7 273 222.9 253.8 237.6 238.6C254.2 221.5 286.5 217.7 304.8 232.7C316.4 242.2 325 255.4 329.9 269.8C331.9 275.7 331 283.1 330 289.5C328.5 299.3 325.7 308.9 323.7 318.7C320 337.1 308.4 349.3 293 358.6C286.8 362.4 280.3 365.7 273.8 369C272.7 369.6 270.6 369.1 269.4 368.4C265 366 260.8 363.3 256.5 360.8C230.7 346 217.3 322.9 217.4 290.9ZM301.1 276.9C283.3 288.4 265.8 288.6 247.9 280.2C246.3 279.5 243.8 279.6 242.1 280.4C232.6 285 224.8 303.4 227.1 313.7C232.6 337.7 249.2 351.1 270.3 360.5C271.3 360.9 272.8 361.1 273.8 360.7C288.7 354.2 303.1 346.6 311.3 331.8C317.2 321.2 322 309.5 315.3 297.4C311.4 290.4 306.2 284.1 301.1 276.9ZM321.1 292.1C321.8 292.1 322.5 292.1 323.3 292.1C323.5 285.8 325.5 278.9 323.6 273.4C318.6 258.9 310.7 245.1 298 236.5C282.5 226.1 265.3 228.5 250 238C232.2 249.1 227.5 267.6 225.3 287C228.1 284.4 230.2 281.3 232.8 278.8C238.7 273.2 244.5 270 253.3 274.7C266.5 281.7 280.4 281 293.4 273.5C297.8 271 301.7 267.5 305.9 264.4C306.7 273.6 306.7 273.6 321.1 292.1Z" fill="black" stroke="black" stroke-width="0.75" stroke-miterlimit="10"/>
<path d="M278 437.3C272.6 437.3 267.5 437.3 262 437.3C263 419.7 268.5 402.5 259.8 384.5C266.7 384.5 271.5 384.2 276.2 384.7C277.5 384.9 279.9 388.2 279.5 389C272.5 404.3 277.5 419.8 278.5 435.3C278.5 435.8 278.3 436.2 278 437.3Z" fill="white" stroke="black" stroke-width="0.75" stroke-miterlimit="10"/>
<path d="M301.1 276.9C306.2 284.1 311.4 290.4 315.3 297.4C322 309.5 317.2 321.2 311.3 331.8C303.1 346.5 288.7 354.2 273.8 360.7C272.8 361.1 271.3 360.9 270.3 360.5C249.1 351.2 232.5 337.7 227.1 313.7C224.8 303.4 232.6 285.1 242.1 280.4C243.7 279.6 246.3 279.4 247.9 280.2C265.8 288.6 283.3 288.4 301.1 276.9Z" fill="white" stroke="black" stroke-width="0.75" stroke-miterlimit="10"/>
<path d="M321.1 292.1C306.7 273.6 306.7 273.6 305.9 264.4C301.7 267.5 297.8 270.9 293.4 273.5C280.3 281 266.4 281.7 253.3 274.7C244.5 270 238.7 273.3 232.8 278.8C230.2 281.3 228.1 284.4 225.3 287C227.4 267.6 232.1 249.1 250 238C265.3 228.5 282.5 226.1 298 236.5C310.7 245.1 318.7 258.9 323.6 273.4C325.5 279 323.5 285.8 323.3 292.1C322.5 292.1 321.8 292.1 321.1 292.1Z" fill="white" stroke="black" stroke-width="0.75" stroke-miterlimit="10"/>
<path d="M96.5 263.8C93 267.3 93 273 96.5 276.5C98.3 278.3 100.6 279.1 102.9 279.1C105.2 279.1 107.5 278.2 109.3 276.5L138.9 246.9L126.2 234.2L96.5 263.8Z" fill="white" stroke="black" stroke-width="7" stroke-miterlimit="10" stroke-linecap="round" stroke-linejoin="round"/>
<path d="M170.4 209L183.3 202.3L190.1 189.3L183.8 183L170.7 189.7L164.1 202.6L148.4 218.3L154.8 224.6L170.4 209Z" fill="white" stroke="black" stroke-width="7" stroke-miterlimit="10" stroke-linecap="round" stroke-linejoin="round"/>
<path d="M173.3 243.1L172.1 243C169.9 243 167.8 243.5 165.9 244.2L128.9 207.2C129.6 205.3 130.1 203.2 130.1 201L130 199.8C129.4 190.4 121.6 183 112.1 183C109.3 183 106.7 183.7 104.4 184.8L116.4 196.8C117 197.4 117.5 198.2 117.8 199C118.6 201.1 118.2 203.6 116.4 205.3C115.2 206.5 113.7 207.1 112.2 207.1C111.5 207.1 110.8 206.9 110.1 206.7C109.3 206.4 108.6 206 107.9 205.3L95.9 193.3C94.8 195.6 94.1 198.2 94.1 201C94.1 210.5 101.5 218.3 110.9 218.9L112.1 219C114.3 219 116.4 218.5 118.3 217.8L155.3 254.8C154.6 256.7 154.1 258.8 154.1 261L154.2 262.2C154.8 271.6 162.6 279 172.1 279C174.9 279 177.5 278.3 179.8 277.2L167.8 265.2C167.2 264.6 166.7 263.8 166.4 263C165.6 260.9 166 258.4 167.8 256.7C169 255.5 170.5 254.9 172 254.9C172.7 254.9 173.4 255.1 174.1 255.3C174.9 255.6 175.6 256 176.3 256.7L188.3 268.7C189.4 266.3 190.1 263.8 190.1 261C190.1 251.5 182.6 243.8 173.3 243.1Z" fill="white" stroke="black" stroke-width="7" stroke-miterlimit="10" stroke-linecap="round" stroke-linejoin="round"/>
<path d="M403.3 173.7C404.736 173.7 405.9 172.536 405.9 171.1C405.9 169.664 404.736 168.5 403.3 168.5C401.864 168.5 400.7 169.664 400.7 171.1C400.7 172.536 401.864 173.7 403.3 173.7Z" fill="white"/>
<path d="M360 215.4C361.436 215.4 362.6 214.236 362.6 212.8C362.6 211.364 361.436 210.2 360 210.2C358.564 210.2 357.4 211.364 357.4 212.8C357.4 214.236 358.564 215.4 360 215.4Z" fill="yellow"/>
<path d="M459.9 206.4C466.5 199.4 470.1 190.6 470.1 181.5C470.1 158.8 447.4 142.4 424.2 142.4C400.7 142.4 381.4 158.6 379.9 179C357.5 180.1 336.5 196.3 336.5 218.1C336.5 227.2 340.1 236 346.7 243C348 248.4 346.4 254 342.5 257.9C341.7 258.7 341.5 259.8 341.9 260.8C342.3 261.8 343.3 262.4 344.3 262.4C351.7 262.4 358.9 259.5 364.2 254.3C369.4 256.1 376.2 257.1 382.3 257.1C405.8 257.1 425.1 240.9 426.6 220.5C432.1 220.3 437.7 219.2 442.2 217.7C447.5 222.8 454.7 225.7 462.1 225.7C463.2 225.7 464.1 225.1 464.5 224.1C464.9 223.1 464.7 222 463.9 221.3C460.2 217.5 458.6 211.8 459.9 206.4ZM382.4 251.9C376.2 251.9 369.2 250.7 364.5 248.8C363.5 248.4 362.3 248.7 361.6 249.5C358.4 252.9 354.3 255.3 349.9 256.4C352.4 251.7 353 246.1 351.5 240.9C351.4 240.5 351.2 240.1 350.9 239.8C345 233.7 341.7 226 341.7 218C341.7 199.6 360.3 184.1 382.4 184.1C403.2 184.1 421.5 198.6 421.5 218C421.6 236.7 404 251.9 382.4 251.9ZM444.9 213C444.2 212.2 443 211.9 442 212.3C437.9 213.9 432.1 215 426.6 215.3C425.8 205.4 420.9 196.2 412.5 189.3H446.5C447.9 189.3 449.1 188.1 449.1 186.7C449.1 185.3 447.9 184.1 446.5 184.1H404.5C398.6 181.1 391.9 179.3 385.1 179C386.6 161.5 403.5 147.6 424.1 147.6C446.2 147.6 464.8 163.1 464.8 181.5C464.8 189.5 461.5 197.2 455.6 203.3C455.3 203.6 455.1 204 455 204.4C453.5 209.7 454.1 215.2 456.6 219.9C452.2 218.8 448.1 216.4 444.9 213Z" stroke="black" stroke-width="8" stroke-miterlimit="10" stroke-linecap="round" stroke-linejoin="round"/>
<path d="M455.1 204.4C455.2 204 455.4 203.6 455.7 203.3C461.6 197.2 464.9 189.5 464.9 181.5C464.9 163.1 446.3 147.6 424.2 147.6C403.6 147.6 386.7 161.5 385.2 179C392 179.4 398.7 181.1 404.6 184.1H446.6C448 184.1 449.2 185.3 449.2 186.7C449.2 188.1 448 189.3 446.6 189.3H412.6C421 196.2 425.9 205.5 426.7 215.3C432.2 215 438 213.9 442.1 212.3C443.1 211.9 444.3 212.2 445 213C448.2 216.4 452.2 218.8 456.7 219.9C454.2 215.2 453.6 209.7 455.1 204.4ZM403.3 173.7C401.9 173.7 400.7 172.5 400.7 171.1C400.7 169.7 401.9 168.5 403.3 168.5C404.7 168.5 405.9 169.7 405.9 171.1C405.9 172.5 404.7 173.7 403.3 173.7ZM446.6 173.7H413.7C412.3 173.7 411.1 172.5 411.1 171.1C411.1 169.7 412.3 168.5 413.7 168.5H446.6C448 168.5 449.2 169.7 449.2 171.1C449.2 172.5 448 173.7 446.6 173.7Z" fill="white"/>
<path d="M382.4 184.1C360.3 184.1 341.7 199.6 341.7 218C341.7 226 345 233.7 350.9 239.8C351.2 240.1 351.4 240.5 351.5 240.9C353 246.2 352.4 251.7 349.9 256.4C354.4 255.3 358.5 252.9 361.6 249.5C362.3 248.7 363.5 248.4 364.5 248.8C369.2 250.7 376.2 251.9 382.4 251.9C404 251.9 421.5 236.7 421.5 218C421.6 198.6 403.3 184.1 382.4 184.1ZM360 210.2C361.4 210.2 362.6 211.4 362.6 212.8C362.6 214.2 361.4 215.4 360 215.4C358.6 215.4 357.4 214.2 357.4 212.8C357.4 211.4 358.6 210.2 360 210.2ZM403.3 231.1H360C358.6 231.1 357.4 229.9 357.4 228.5C357.4 227.1 358.6 225.9 360 225.9H403.3C404.7 225.9 405.9 227.1 405.9 228.5C405.9 229.9 404.7 231.1 403.3 231.1ZM403.3 215.4H370.4C369 215.4 367.8 214.2 367.8 212.8C367.8 211.4 369 210.2 370.4 210.2H403.3C404.7 210.2 405.9 211.4 405.9 212.8C405.9 214.2 404.7 215.4 403.3 215.4Z" fill="white"/>
<path d="M405.9 212.8C405.9 214.2 404.7 215.4 403.3 215.4H370.4C369 215.4 367.8 214.2 367.8 212.8C367.8 211.4 369 210.2 370.4 210.2H403.3C404.7 210.2 405.9 211.4 405.9 212.8Z" fill="black"/>
<path d="M405.9 228.5C405.9 229.9 404.7 231.1 403.3 231.1H360C358.6 231.1 357.4 229.9 357.4 228.5C357.4 227.1 358.6 225.9 360 225.9H403.3C404.7 225.8 405.9 227 405.9 228.5Z" fill="black"/>
<path d="M449.2 171.1C449.2 172.5 448 173.7 446.6 173.7H413.7C412.3 173.7 411.1 172.5 411.1 171.1C411.1 169.7 412.3 168.5 413.7 168.5H446.6C448 168.5 449.2 169.6 449.2 171.1Z" fill="black"/>
<path d="M267.7 586C267.2 586.1 266.7 586.1 266.3 586.2C238.1 588.6 209.9 590.9 181.7 593.3C180.4 593.4 179.1 593.5 178.1 592.7C177 591.9 176.8 590.4 176.6 589C171.4 545.6 166.1 502.2 160.9 458.8C147.7 451 134.6 443.2 121.4 435.4C108.8 427.9 95.8001 420.2 86.6001 408.8C79.6001 400.1 75.0001 389.8 70.5001 379.6C56.7001 348.4 43.0001 317.2 29.2001 286C36.9001 281.7 44.6001 277.5 52.3001 273.2C54.1001 272.2 56.0001 271.2 57.8001 270.1C60.4001 268.6 60.8001 267.9 62.4001 270.6C64.7001 274.4 66.9001 278.2 69.2001 282C78.3001 297.2 87.4001 312.4 96.5001 327.5C100.4 334 104.3 340.6 108.2 347.1C110.7 351.3 113.3 355.5 116.6 359C121.1 363.6 126.9 366.8 132.6 369.8C147.5 377.8 162.4 385.8 177.3 393.8C197.8 390.6 218.4 387.7 239 384.9C240.2 384.7 241.6 384.6 242.6 385.3C243.6 386.1 243.9 387.4 244 388.7C252.8 452.8 261.5 517 270.3 581.1C270.5 582.5 270.6 584 269.7 585.1C269.1 585.5 268.4 585.8 267.7 586Z" fill="white" stroke="black" stroke-width="8" stroke-miterlimit="10" stroke-linecap="round" stroke-linejoin="round"/>
<path d="M33.8001 282.6L21.5001 263.7C21.5001 263.7 8.20006 260.1 4.40006 249C0.600062 237.9 28.6001 225.4 33.9001 226.6C39.2001 227.9 49.4001 238.5 44.9001 250.8L54.4001 270.4L33.8001 282.6Z" fill="white" stroke="black" stroke-width="8" stroke-miterlimit="10" stroke-linecap="round" stroke-linejoin="round"/>
<path d="M274 586C274.5 586.1 275 586.1 275.4 586.2C303.6 588.6 331.8 590.9 360 593.3C361.3 593.4 362.6 593.5 363.6 592.7C364.7 591.9 364.9 590.4 365.1 589C370.3 545.6 375.6 502.2 380.8 458.8C394 451 407.1 443.2 420.3 435.4C432.9 427.9 445.9 420.2 455.1 408.8C462.1 400.1 466.7 389.8 471.2 379.6C485 348.4 498.7 317.2 512.5 286C504.8 281.7 497.1 277.5 489.4 273.2C487.6 272.2 485.7 271.2 483.9 270.1C481.3 268.6 480.9 267.9 479.3 270.6C477 274.4 474.8 278.2 472.5 282C463.4 297.2 454.3 312.4 445.2 327.5C441.3 334 437.4 340.6 433.5 347.1C431 351.3 428.4 355.5 425.1 359C420.6 363.6 414.8 366.8 409.1 369.8C394.2 377.8 379.3 385.8 364.4 393.8C343.9 390.6 323.3 387.7 302.7 384.9C301.5 384.7 300.1 384.6 299.1 385.3C298.1 386.1 297.8 387.4 297.7 388.7C288.9 452.8 280.2 517 271.4 581.1C271.2 582.5 271.1 584 272 585.1C272.5 585.5 273.2 585.8 274 586Z" fill="white" stroke="black" stroke-width="8" stroke-miterlimit="10" stroke-linecap="round" stroke-linejoin="round"/>
<path d="M507.9 282.6L520.2 263.7C520.2 263.7 533.5 260.1 537.3 249C541.1 237.9 513.1 225.4 507.8 226.6C502.5 227.9 492.3 238.5 496.8 250.8L487.3 270.4L507.9 282.6Z" fill="white" stroke="black" stroke-width="8" stroke-miterlimit="10" stroke-linecap="round" stroke-linejoin="round"/>
<path d="M369.4 436.7C335.8 436.7 302.1 436.7 268.5 436.7H245.3C219 436.7 192.6 436.7 166.3 436.7C156.7 436.7 153.6 440.2 154.2 449.8C154.3 451.3 154.4 452.7 154.5 454.2C157.4 483.1 160.3 512 163.3 540.8C164.7 554.9 166 569.1 167.9 583.1C169.1 592 173.4 595 182.4 595C239.5 595 296.5 595 353.6 595C363.9 595 368.5 591.1 369.5 580.7C373.9 537.3 378.3 493.9 382.6 450.4C383.6 439.7 380.5 436.7 369.4 436.7ZM268.6 537.1C256.6 537.2 246.9 527.6 247 515.8C247.1 503.8 256.6 494.4 268.6 494.4C280.4 494.4 289.7 503.7 289.8 515.4C290 527.5 280.6 537.1 268.6 537.1Z" fill="#00FFB6" stroke="black" stroke-width="8" stroke-miterlimit="10"/>
<path d="M268.6 494.4C256.6 494.4 247 503.8 247 515.8C246.9 527.6 256.7 537.2 268.6 537.1C280.6 537 290 527.5 289.8 515.4C289.7 503.7 280.4 494.5 268.6 494.4ZM268.3 530.4C260.4 530.5 253.8 523.6 254 515.4C254.2 507.4 260.4 501.4 268.5 501.4C276.4 501.4 282.9 507.8 282.9 515.6C283.1 523.6 276.4 530.2 268.3 530.4Z" fill="black" stroke="black" stroke-width="0.75" stroke-miterlimit="10"/>
<path d="M268.6 501.4C276.5 501.4 283 507.8 283 515.6C283 523.6 276.4 530.3 268.3 530.4C260.4 530.5 253.8 523.6 254 515.4C254.3 507.3 260.5 501.3 268.6 501.4Z" fill="white" stroke="black" stroke-width="0.75" stroke-miterlimit="10"/>
<path d="M114.3 120.4L91.6001 111.2C91.4001 111.1 91.3001 111.1 91.1001 111.2L68.6001 120.8C68.2001 121 67.7001 120.6 67.7001 120.2L69.5001 95.8C69.5001 95.6 69.5001 95.5 69.3001 95.3L53.2001 76.8C52.9001 76.4 53.1001 75.8999 53.5001 75.6999L77.3001 69.8C77.5001 69.8 77.6001 69.7 77.7001 69.5L90.3001 48.5C90.6001 48.1 91.2001 48.1 91.4001 48.5L104.3 69.3C104.4 69.4 104.5 69.6 104.7 69.6L128.6 75.1C129.1 75.2 129.3 75.7999 129 76.1999L113.2 94.8999C113.1 94.9999 113 95.1999 113 95.3999L115.2 119.8C115.3 120.3 114.8 120.6 114.3 120.4Z" fill="yellow" stroke="black" stroke-width="7" stroke-miterlimit="10" stroke-linecap="round" stroke-linejoin="round"/>
<path d="M195.3 91.0999L172.6 81.8999C172.4 81.7999 172.3 81.7999 172.1 81.8999L149.6 91.4999C149.2 91.6999 148.7 91.2999 148.7 90.8999L150.5 66.4999C150.5 66.2999 150.5 66.1999 150.3 65.9999L134.2 47.4999C133.9 47.0999 134.1 46.5999 134.5 46.3999L158.3 40.4999C158.5 40.4999 158.6 40.3999 158.7 40.1999L171.3 19.1999C171.6 18.7999 172.2 18.7999 172.4 19.1999L185.3 39.9999C185.4 40.0999 185.5 40.2999 185.7 40.2999L209.6 45.7999C210.1 45.8999 210.3 46.4999 210 46.8999L194.2 65.5999C194.1 65.6999 194 65.8999 194 66.0999L196.2 90.4999C196.2 90.8999 195.7 91.1999 195.3 91.0999Z" fill="yellow" stroke="black" stroke-width="7" stroke-miterlimit="10" stroke-linecap="round" stroke-linejoin="round"/>
<path d="M286.3 76.0999L263.6 66.8999C263.4 66.7999 263.3 66.7999 263.1 66.8999L240.6 76.4999C240.2 76.6999 239.7 76.2999 239.7 75.8999L241.5 51.4999C241.5 51.2999 241.5 51.1999 241.3 50.9999L225.2 32.4999C224.9 32.0999 225.1 31.5999 225.5 31.3999L249.3 25.4999C249.5 25.4999 249.6 25.3999 249.7 25.1999L262.3 4.1999C262.6 3.7999 263.2 3.7999 263.4 4.1999L276.3 24.9999C276.4 25.0999 276.5 25.2999 276.7 25.2999L300.6 30.7999C301.1 30.8999 301.3 31.4999 301 31.8999L285.2 50.5999C285.1 50.6999 285 50.8999 285 51.0999L287.2 75.4999C287.2 75.8999 286.7 76.1999 286.3 76.0999Z" fill="yellow" stroke="black" stroke-width="7" stroke-miterlimit="10" stroke-linecap="round" stroke-linejoin="round"/>
<path d="M377.3 91.0999L354.6 81.8999C354.4 81.7999 354.3 81.7999 354.1 81.8999L331.6 91.4999C331.2 91.6999 330.7 91.2999 330.7 90.8999L332.5 66.4999C332.5 66.2999 332.5 66.1999 332.3 65.9999L316.2 47.4999C315.9 47.0999 316.1 46.5999 316.5 46.3999L340.3 40.4999C340.5 40.4999 340.6 40.3999 340.7 40.1999L353.3 19.1999C353.6 18.7999 354.2 18.7999 354.4 19.1999L367.3 39.9999C367.4 40.0999 367.5 40.2999 367.7 40.2999L391.6 45.7999C392.1 45.8999 392.3 46.4999 392 46.8999L376.2 65.5999C376.1 65.6999 376 65.8999 376 66.0999L378.2 90.4999C378.2 90.8999 377.7 91.1999 377.3 91.0999Z" fill="yellow" stroke="black" stroke-width="7" stroke-miterlimit="10" stroke-linecap="round" stroke-linejoin="round"/>
<path d="M463.3 120.4L440.6 111.2C440.4 111.1 440.3 111.1 440.1 111.2L417.6 120.8C417.2 121 416.7 120.6 416.7 120.2L418.5 95.8C418.5 95.6 418.5 95.5 418.3 95.3L402.2 76.8C401.9 76.4 402.1 75.8999 402.5 75.6999L426.3 69.8C426.5 69.8 426.6 69.7 426.7 69.5L439.3 48.5C439.6 48.1 440.2 48.1 440.4 48.5L453.3 69.3C453.4 69.4 453.5 69.6 453.7 69.6L477.6 75.1C478.1 75.2 478.3 75.7999 478 76.1999L462.2 94.8999C462.1 94.9999 462 95.1999 462 95.3999L464.2 119.8C464.2 120.3 463.7 120.6 463.3 120.4Z" fill="yellow" stroke="black" stroke-width="7" stroke-miterlimit="10" stroke-linecap="round" stroke-linejoin="round"/>
</svg>
