<?xml version="1.0" encoding="utf-8"?>
<!-- Generator: Adobe Illustrator 16.0.0, SVG Export Plug-In . SVG Version: 6.00 Build 0)  -->
<!DOCTYPE svg PUBLIC "-//W3C//DTD SVG 1.1//EN" "http://www.w3.org/Graphics/SVG/1.1/DTD/svg11.dtd">
<svg version="1.1" id="Layer_1" xmlns="http://www.w3.org/2000/svg" xmlns:xlink="http://www.w3.org/1999/xlink" x="0px" y="0px"
	 width="1507.573px" height="1042.253px" viewBox="680.596 2175.864 1507.573 1042.253"
	 enable-background="new 680.596 2175.864 1507.573 1042.253" xml:space="preserve">
<g id="XMLID_1029_">
	<g id="XMLID_1030_">
		<g id="XMLID_1112_">
			<g id="XMLID_586_">
				<g id="XMLID_599_">
					<path id="XMLID_600_" fill="#CFFFF0" d="M1850.273,2504.15h-997.45c-10.507,0-19.104-8.597-19.104-19.104v-116.293
						c0-10.508,8.597-19.104,19.104-19.104h997.45c10.508,0,19.104,8.597,19.104,19.104v116.293
						C1869.377,2495.554,1860.781,2504.15,1850.273,2504.15z"/>
				</g>
				<g id="XMLID_597_">
					<path id="XMLID_598_" fill="#CFFFF0" d="M1786.993,2565.999h-997.45c-10.508,0-19.104-8.597-19.104-19.104v-116.294
						c0-10.507,8.596-19.104,19.104-19.104h997.45c10.507,0,19.104,8.597,19.104,19.104v116.294
						C1806.096,2557.402,1797.5,2565.999,1786.993,2565.999z"/>
				</g>
				<g id="XMLID_595_">
					<path id="XMLID_596_" fill="#CFFFF0" d="M2012.416,2737.216h-964.258c-19.581,0-35.58-16-35.58-35.581v-201.066
						c0-19.581,15.999-35.58,35.58-35.58h964.258c19.582,0,35.58,15.999,35.58,35.58v201.066
						C2047.996,2721.216,2031.998,2737.216,2012.416,2737.216z"/>
				</g>
				<g id="XMLID_593_">
					<path id="XMLID_594_" fill="#CFFFF0" d="M1870.571,2866.404H906.313c-19.581,0-35.58-16-35.58-35.581v-80.474
						c0-19.582,15.999-35.581,35.58-35.581h964.258c19.581,0,35.581,15.999,35.581,35.581v80.474
						C1906.152,2850.404,1890.152,2866.404,1870.571,2866.404z"/>
				</g>
				<g id="XMLID_591_">
					<path id="XMLID_592_" fill="#CFFFF0" d="M2152.59,2973.146h-964.258c-19.582,0-35.581-15.999-35.581-35.58v-119.637
						c0-19.582,15.999-35.581,35.581-35.581h964.258c19.58,0,35.58,16,35.58,35.581v119.637
						C2188.17,2957.146,2172.171,2973.146,2152.59,2973.146z"/>
				</g>
				<g id="XMLID_589_">
					<path id="XMLID_590_" fill="#CFFFF0" d="M1715.353,3065.799H751.096c-19.581,0-35.581-16-35.581-35.581v-52.296
						c0-19.581,16-35.581,35.581-35.581h964.257c19.582,0,35.581,16,35.581,35.581v52.296
						C1751.174,3049.799,1734.935,3065.799,1715.353,3065.799z"/>
				</g>
				<g id="XMLID_587_">
					<path id="XMLID_588_" fill="#CFFFF0" d="M1857.437,3209.076H877.42c-19.582,0-35.581-15.999-35.581-35.581v-114.144
						c0-19.582,15.999-35.581,35.581-35.581h980.018c19.582,0,35.581,15.999,35.581,35.581v114.144
						C1893.018,3193.077,1877.019,3209.076,1857.437,3209.076z"/>
				</g>
			</g>
		</g>
		<path id="XMLID_1109_" fill="#CFFFF0" d="M1149.885,2596.564h857.276c10.508,0,19.104-8.597,19.104-19.104v-106.98
			c0-10.507-8.597-19.104-19.104-19.104h-857.276c-10.507,0-19.104,8.597-19.104,19.104v106.98
			C1130.782,2587.968,1139.379,2596.564,1149.885,2596.564z"/>
		<g id="XMLID_1087_">
			<g id="XMLID_502_">
				<g id="XMLID_508_">
					<g id="XMLID_509_">
						
							<line id="XMLID_525_" fill="none" stroke="#000000" stroke-width="8" stroke-miterlimit="10" x1="1273.82" y1="2251.027" x2="914.672" y2="2251.027"/>
					</g>
				</g>
				<g id="XMLID_503_">
					<g id="XMLID_506_">
						
							<line id="XMLID_507_" fill="none" stroke="#000000" stroke-width="8" stroke-miterlimit="10" x1="1249.941" y1="2183.448" x2="1107.38" y2="2183.448"/>
					</g>
					<g id="XMLID_504_">
						
							<line id="XMLID_505_" fill="none" stroke="#000000" stroke-width="8" stroke-miterlimit="10" x1="1078.485" y1="2183.448" x2="993.952" y2="2183.448"/>
					</g>
				</g>
			</g>
		</g>
		<g id="XMLID_1065_">
			<g id="XMLID_485_">
				<g id="XMLID_491_">
					<g id="XMLID_492_">
						
							<line id="XMLID_493_" fill="none" stroke="#000000" stroke-width="8" stroke-miterlimit="10" x1="2164.767" y1="2987.234" x2="1998.804" y2="2987.234"/>
					</g>
				</g>
				<g id="XMLID_486_">
					<g id="XMLID_489_">
						
							<line id="XMLID_490_" fill="none" stroke="#000000" stroke-width="8" stroke-miterlimit="10" x1="2153.783" y1="3054.575" x2="2087.875" y2="3054.575"/>
					</g>
					<g id="XMLID_487_">
						
							<line id="XMLID_488_" fill="none" stroke="#000000" stroke-width="8" stroke-miterlimit="10" x1="2074.504" y1="3054.575" x2="2035.341" y2="3054.575"/>
					</g>
				</g>
			</g>
		</g>
	</g>
</g>
<path id="XMLID_240_" fill="#FFE70B" d="M1896.123,3043.113H857.838c-24.834,0-45.371-20.298-45.371-45.371V2896.97
	c0-24.835,20.298-45.371,45.371-45.371h1038.046c24.835,0,45.371,20.298,45.371,45.371v100.772
	C1941.494,3022.576,1920.957,3043.113,1896.123,3043.113z"/>
<g id="XMLID_239_">
	<path id="XMLID_806_" d="M1034.547,2660.323c-2.388-1.672-4.537-3.821-5.73-6.209l-91.937-153.067
		c-2.627-4.537-2.388-8.598,0.955-10.985c3.104-2.388,8.597-2.388,14.328-0.238l919.841,374.67
		c7.643,3.104,13.135,9.791,12.896,15.283s-6.448,8.119-14.089,6.209l-828.145-221.364
		C1039.801,2663.428,1036.935,2661.995,1034.547,2660.323z M976.759,2521.821l73.549,122.741l663.136,177.426L976.759,2521.821z"/>
	<path id="XMLID_737_" d="M1000.16,2872.374c-5.253-3.821-8.119-8.836-7.402-12.896l34.387-212.051
		c0.717-5.015,6.687-7.163,13.851-5.253l828.144,221.363c7.642,2.149,14.328,8.119,15.521,13.851
		c1.194,5.97-3.582,9.791-10.746,8.835l-737.162-84.295l-117.487,73.55c-4.06,2.627-11.224,1.671-17.433-1.91
		C1001.354,2873.09,1000.638,2872.612,1000.16,2872.374z M1055.084,2667.487l-26.984,166.918l88.116-55.162
		c1.91-1.193,4.775-1.671,7.88-1.433l601.049,69.012L1055.084,2667.487z"/>
	<path id="XMLID_714_" d="M804.347,2644.563c-3.343-2.388-5.97-5.492-6.925-8.597c-2.149-6.447,2.388-10.984,10.269-10.269
		l141.845,14.567c7.88,0.716,16.237,6.686,18.387,13.134c2.149,6.447-2.388,10.984-10.268,10.268L815.81,2649.1
		C811.751,2648.622,807.691,2646.95,804.347,2644.563z"/>
	<path id="XMLID_712_" d="M688.054,2760.14c-3.344-2.388-5.971-5.492-6.926-8.597c-2.148-6.447,2.389-10.984,10.269-10.268
		l40.596,4.298c7.88,0.717,15.999,6.687,18.387,13.134c2.149,6.447-2.388,10.984-10.268,10.269l-40.596-4.299
		C695.457,2764.199,691.397,2762.527,688.054,2760.14z"/>
	<path id="XMLID_699_" d="M789.303,2770.646c-3.343-2.388-5.97-5.492-7.164-8.835c-2.148-6.447,2.389-10.984,10.269-10.269
		l121.547,12.656c7.881,0.717,16.238,6.687,18.388,13.134s-2.388,10.984-10.269,10.269l-121.309-12.418
		C796.707,2774.706,792.646,2773.035,789.303,2770.646z"/>
	<path id="XMLID_688_" d="M947.625,2946.64c-3.343-2.388-5.97-5.492-7.163-8.597c-2.149-6.447,2.388-10.984,10.268-10.269
		l20.298,2.149c7.881,0.716,16.238,6.686,18.388,13.134c2.149,6.447-2.388,10.984-10.269,10.269l-20.298-2.149
		C955.028,2950.699,950.969,2949.027,947.625,2946.64z"/>
	<path id="XMLID_687_" d="M1028.816,2954.997c-3.344-2.388-5.971-5.492-7.164-8.597c-2.149-6.447,2.388-10.984,10.268-10.268
		l101.25,10.507c7.881,0.716,16.238,6.687,18.387,13.134c2.15,6.447-2.387,10.984-10.268,10.268l-101.25-10.507
		C1035.98,2959.057,1032.159,2957.385,1028.816,2954.997z"/>
	<polygon id="XMLID_989_" fill="#00FFB6" stroke="#000000" stroke-width="8" stroke-miterlimit="10" points="1183.078,2783.064 
		1612.672,2839.659 1652.789,2629.041 1224.151,2548.806 	"/>
	<g enable-background="new    ">
		<path d="M1256.105,2623.523l10.521-21.344l5.61,0.882c-0.144,7.246-0.592,14.616-1.347,22.112
			c-0.756,7.497-1.599,15.329-2.533,23.494l-5.829-0.916c0.363-2.631,0.761-5.48,1.193-8.547c0.433-3.068,0.867-6.234,1.307-9.502
			c0.437-3.266,0.884-6.58,1.337-9.943c0.454-3.363,0.88-6.631,1.28-9.804l-9.787,19.518l-5.246-0.824l-3.475-21.601
			c-0.545,3.15-1.115,6.383-1.711,9.697c-0.595,3.318-1.187,6.608-1.775,9.876c-0.588,3.268-1.158,6.426-1.712,9.475
			c-0.554,3.048-1.062,5.88-1.521,8.496l-5.829-0.916c0.726-3.668,1.49-7.43,2.296-11.286c0.803-3.855,1.642-7.681,2.512-11.477
			c0.869-3.795,1.781-7.535,2.733-11.218c0.952-3.684,1.918-7.214,2.896-10.596l5.538,0.87L1256.105,2623.523z"/>
		<path d="M1273.409,2655.957c0.399,0.312,0.988,0.604,1.767,0.875c0.779,0.271,1.508,0.461,2.188,0.568
			c2.38,0.374,4.32,0.143,5.82-0.691s2.996-2.354,4.486-4.559c-1.911-5.575-3.593-11.503-5.046-17.778
			c-1.453-6.276-2.495-12.476-3.126-18.598l6.559,1.03c0.18,2.021,0.42,4.21,0.722,6.572c0.3,2.362,0.677,4.798,1.128,7.308
			c0.452,2.511,0.964,5.042,1.533,7.595s1.216,5.006,1.941,7.361c1.127-2.112,2.204-4.208,3.228-6.288
			c1.023-2.078,2.001-4.177,2.931-6.296c0.93-2.118,1.867-4.285,2.814-6.502c0.944-2.215,1.935-4.56,2.972-7.037l6.266,0.984
			c-2.547,6.071-5.246,11.92-8.094,17.543c-2.852,5.627-5.766,10.793-8.744,15.501c-1.133,1.813-2.281,3.349-3.45,4.609
			s-2.384,2.263-3.646,3.012c-1.263,0.746-2.632,1.229-4.108,1.444c-1.479,0.216-3.116,0.184-4.913-0.099
			c-0.922-0.146-1.912-0.427-2.966-0.841c-1.054-0.416-1.763-0.75-2.119-1.004L1273.409,2655.957z"/>
		<path d="M1354.701,2662.232l-5.611-0.882c0.028-3.03,0.164-6.357,0.409-9.977c0.245-3.62,0.539-7.394,0.884-11.322
			c0.344-3.928,0.738-7.948,1.186-12.058c0.446-4.112,0.914-8.194,1.402-12.25l5.828,0.916l-5.117,37.797l9.786-19.518l5.246,0.824
			l3.476,21.601l6.721-37.545l5.829,0.916c-0.788,4.059-1.61,8.109-2.472,12.155c-0.858,4.047-1.737,7.978-2.636,11.794
			c-0.897,3.815-1.796,7.471-2.692,10.963c-0.897,3.492-1.777,6.714-2.638,9.664l-5.538-0.87l-3.543-23.552L1354.701,2662.232z"/>
		<path d="M1416.157,2654.566c-0.419,2.671-1.177,5.029-2.269,7.072c-1.093,2.044-2.441,3.735-4.045,5.076
			c-1.605,1.341-3.42,2.288-5.448,2.839c-2.028,0.552-4.16,0.653-6.395,0.303c-2.185-0.344-4.147-1.088-5.883-2.231
			c-1.737-1.143-3.164-2.6-4.279-4.367c-1.116-1.768-1.881-3.791-2.294-6.071c-0.414-2.28-0.41-4.757,0.01-7.428
			c0.42-2.672,1.178-5.042,2.273-7.109c1.097-2.067,2.445-3.76,4.046-5.076c1.6-1.317,3.402-2.253,5.407-2.81
			c2.002-0.555,4.099-0.663,6.283-0.319c2.234,0.351,4.231,1.102,5.994,2.248c1.761,1.148,3.199,2.594,4.32,4.338
			c1.119,1.743,1.884,3.768,2.293,6.071C1416.582,2649.406,1416.577,2651.895,1416.157,2654.566z M1409.964,2653.594
			c0.603-3.837,0.251-6.991-1.052-9.462c-1.305-2.469-3.366-3.926-6.184-4.368c-2.769-0.436-5.14,0.325-7.114,2.279
			c-1.975,1.955-3.264,4.852-3.866,8.688c-0.595,3.788-0.253,6.916,1.027,9.382c1.28,2.467,3.304,3.916,6.072,4.352
			c2.817,0.442,5.227-0.311,7.226-2.263C1408.07,2660.252,1409.369,2657.382,1409.964,2653.594z"/>
		<path d="M1424.213,2673.152l5.025-31.987c5.222-0.921,10.358-0.985,15.41-0.191c1.555,0.244,3.025,0.538,4.416,0.881
			c1.39,0.343,2.903,0.841,4.543,1.497l-1.928,5.147c-1.487-0.682-2.815-1.176-3.985-1.484c-1.173-0.308-2.461-0.573-3.87-0.795
			c-2.964-0.466-6.039-0.525-9.229-0.181l-4.407,28.053L1424.213,2673.152z"/>
		<path d="M1473.109,2661.796c1.158,1.179,2.446,2.637,3.866,4.379c1.419,1.74,2.808,3.589,4.169,5.545
			c1.359,1.956,2.629,3.934,3.809,5.936c1.178,2.004,2.087,3.825,2.725,5.468l-7.142-1.122c-0.687-1.649-1.586-3.371-2.697-5.164
			c-1.113-1.793-2.318-3.538-3.619-5.234c-1.302-1.698-2.622-3.274-3.962-4.729c-1.339-1.454-2.552-2.69-3.636-3.707l-2.553,16.248
			l-6.048-0.95l7.772-49.474l6.208-0.07l-4.842,30.822c3.038-1.912,6.074-3.812,9.108-5.7c3.033-1.887,5.813-3.902,8.342-6.044
			l7.067,1.11c-2.479,2.149-5.394,4.305-8.743,6.467C1479.583,2657.736,1476.306,2659.81,1473.109,2661.796z"/>
	</g>
	<g enable-background="new    ">
		<path d="M1230.028,2713.473l7.086-45.102l25.285,3.972l-0.801,5.101l-19.311-3.033l-2.176,13.845l16.906,2.655l-0.801,5.101
			l-16.906-2.655l-2.506,15.956l20.912,3.285l-0.801,5.101L1230.028,2713.473z"/>
		<path d="M1287.518,2722.505c-0.332-1.047-0.76-2.21-1.281-3.485c-0.521-1.277-1.098-2.601-1.729-3.969
			c-0.631-1.369-1.301-2.729-2.008-4.086c-0.711-1.354-1.416-2.636-2.123-3.842c-1.049,0.98-2.154,2.002-3.318,3.063
			c-1.162,1.063-2.289,2.142-3.383,3.239c-1.094,1.097-2.121,2.167-3.08,3.211c-0.961,1.044-1.779,1.986-2.459,2.824l-6.195-0.973
			c2.063-2.663,4.488-5.354,7.281-8.078c2.791-2.722,5.521-5.291,8.191-7.709l-9.65-17.941l6.777,1.064l7.254,13.235l10.232-10.488
			l6.412,1.008l-13.609,13.914c1.736,3.21,3.465,6.543,5.188,9.999c1.721,3.455,3.123,6.812,4.203,10.066L1287.518,2722.505z"/>
		<path d="M1332.425,2712.313c-0.404,2.575-1.104,4.892-2.1,6.948c-0.996,2.06-2.236,3.769-3.719,5.128
			c-1.482,1.361-3.191,2.337-5.125,2.929c-1.936,0.592-4.045,0.708-6.326,0.35c-1.799-0.282-3.344-0.749-4.635-1.4
			c-1.291-0.65-2.234-1.296-2.832-1.937l-2.094,13.333l-6.049-0.95l7.041-44.811c1.373-0.183,3.121-0.306,5.248-0.37
			c2.125-0.064,4.523,0.113,7.195,0.532c2.428,0.382,4.572,1.142,6.436,2.281c1.861,1.139,3.377,2.583,4.547,4.335
			c1.166,1.751,1.969,3.781,2.402,6.089C1332.846,2707.079,1332.852,2709.594,1332.425,2712.313z M1326.231,2711.34
			c0.617-3.935,0.174-7.128-1.332-9.579c-1.508-2.45-3.742-3.911-6.703-4.377c-1.654-0.259-2.963-0.39-3.934-0.393
			s-1.738,0.052-2.305,0.161l-3.354,21.349c0.582,0.738,1.486,1.478,2.715,2.218c1.227,0.741,2.543,1.222,3.953,1.443
			c1.604,0.252,3.023,0.151,4.266-0.301c1.24-0.451,2.311-1.167,3.213-2.146c0.9-0.979,1.635-2.182,2.209-3.609
			C1325.532,2714.677,1325.956,2713.089,1326.231,2711.34z"/>
		<path d="M1357.003,2697.956c4.564,0.718,7.865,2.691,9.895,5.923c2.031,3.23,2.594,7.737,1.686,13.518l-0.332,2.112l-24.191-3.801
			c-0.307,3.537,0.43,6.377,2.207,8.522c1.779,2.146,4.537,3.514,8.279,4.102c2.137,0.335,3.984,0.451,5.545,0.348
			c1.559-0.103,2.758-0.287,3.596-0.555v5.227c-0.789,0.274-2.166,0.48-4.129,0.62s-4.135,0.022-6.516-0.352
			c-2.914-0.458-5.406-1.31-7.475-2.556c-2.07-1.246-3.711-2.76-4.924-4.545c-1.213-1.781-2.014-3.812-2.402-6.088
			c-0.389-2.274-0.385-4.677,0.012-7.203c0.473-3.011,1.346-5.563,2.621-7.651c1.271-2.089,2.777-3.744,4.514-4.966
			c1.732-1.221,3.605-2.046,5.613-2.479C1353.01,2697.702,1355.01,2697.644,1357.003,2697.956z M1362.897,2713.666
			c0.449-2.865,0.053-5.256-1.189-7.168c-1.242-1.913-3.102-3.063-5.578-3.453c-1.41-0.221-2.729-0.152-3.951,0.201
			c-1.227,0.355-2.322,0.904-3.283,1.648c-0.965,0.745-1.777,1.639-2.438,2.68c-0.662,1.042-1.156,2.132-1.486,3.275
			L1362.897,2713.666z"/>
		<path d="M1376.921,2736.55l5.025-31.987c5.223-0.922,10.359-0.985,15.412-0.191c1.553,0.244,3.025,0.538,4.416,0.881
			c1.389,0.343,2.904,0.842,4.543,1.497l-1.93,5.146c-1.484-0.681-2.813-1.175-3.984-1.483s-2.461-0.573-3.869-0.795
			c-2.965-0.466-6.039-0.525-9.23-0.18l-4.406,28.052L1376.921,2736.55z"/>
		<path d="M1423.778,2714.421l-9.766-1.534l0.791-5.028l15.738,2.473l-3.262,20.767c-0.527,3.352-0.418,5.671,0.324,6.957
			c0.744,1.287,2.039,2.075,3.887,2.365c1.406,0.221,2.732,0.255,3.977,0.102c1.242-0.152,2.234-0.369,2.979-0.652l0.072,5.238
			c-0.314,0.1-0.756,0.217-1.326,0.352c-0.568,0.135-1.219,0.245-1.953,0.328c-0.736,0.082-1.541,0.131-2.412,0.144
			c-0.873,0.012-1.771-0.055-2.695-0.199c-2.137-0.336-3.863-0.905-5.182-1.711c-1.316-0.804-2.309-1.854-2.975-3.155
			c-0.668-1.299-1.035-2.838-1.105-4.614c-0.068-1.778,0.076-3.809,0.436-6.092L1423.778,2714.421z M1426.921,2704.387
			c-1.264-0.199-2.287-0.808-3.07-1.826c-0.787-1.021-1.063-2.282-0.826-3.788c0.238-1.505,0.885-2.624,1.947-3.353
			c1.059-0.729,2.221-0.996,3.484-0.797c1.313,0.206,2.346,0.816,3.109,1.832c0.76,1.016,1.023,2.277,0.787,3.782
			c-0.236,1.506-0.873,2.625-1.908,3.358C1429.405,2704.328,1428.233,2704.593,1426.921,2704.387z"/>
		<path d="M1466.3,2715.127c4.564,0.717,7.865,2.691,9.895,5.922c2.031,3.231,2.594,7.737,1.686,13.518l-0.332,2.112l-24.191-3.8
			c-0.307,3.537,0.428,6.376,2.207,8.521c1.777,2.146,4.537,3.514,8.279,4.102c2.137,0.336,3.984,0.452,5.545,0.348
			c1.557-0.102,2.756-0.287,3.596-0.555v5.227c-0.791,0.275-2.166,0.481-4.129,0.62c-1.963,0.14-4.137,0.022-6.516-0.351
			c-2.914-0.458-5.406-1.31-7.475-2.556c-2.07-1.247-3.711-2.761-4.924-4.545c-1.213-1.781-2.014-3.812-2.402-6.088
			c-0.391-2.274-0.385-4.677,0.012-7.203c0.473-3.011,1.346-5.563,2.619-7.651s2.777-3.745,4.514-4.966
			c1.734-1.221,3.607-2.047,5.615-2.479C1462.307,2714.873,1464.305,2714.813,1466.3,2715.127z M1472.194,2730.837
			c0.449-2.865,0.053-5.257-1.189-7.169s-3.102-3.063-5.58-3.452c-1.408-0.222-2.727-0.153-3.951,0.201
			c-1.227,0.355-2.32,0.904-3.283,1.648c-0.965,0.745-1.775,1.639-2.436,2.679c-0.662,1.042-1.156,2.133-1.486,3.276
			L1472.194,2730.837z"/>
		<path d="M1488.757,2720.447c2.27-0.189,4.508-0.263,6.717-0.214c2.207,0.048,4.258,0.221,6.152,0.519
			c4.518,0.709,7.746,2.41,9.688,5.105c1.941,2.694,2.508,6.616,1.699,11.764l-3.115,19.819l-5.975-0.938l2.943-18.726
			c0.342-2.186,0.428-3.989,0.252-5.411c-0.176-1.42-0.557-2.562-1.143-3.427c-0.586-0.863-1.354-1.519-2.303-1.966
			c-0.951-0.45-2.008-0.766-3.174-0.948c-0.973-0.153-2.014-0.252-3.125-0.304c-1.111-0.05-2.193-0.058-3.244-0.024l-4.488,28.563
			l-6.047-0.95L1488.757,2720.447z"/>
		<path d="M1521.067,2741.949c0.48-3.061,1.383-5.632,2.705-7.714c1.322-2.081,2.947-3.718,4.877-4.907
			c1.93-1.191,4.08-1.96,6.449-2.31c2.369-0.349,4.84-0.323,7.416,0.082c1.65,0.259,3.271,0.627,4.865,1.101
			c1.594,0.475,3.268,1.147,5.021,2.021l-2.197,4.956c-1.512-0.835-2.922-1.441-4.23-1.822c-1.311-0.38-2.645-0.677-4.004-0.891
			c-1.75-0.274-3.438-0.303-5.064-0.086c-1.627,0.219-3.09,0.735-4.387,1.551c-1.297,0.817-2.41,1.962-3.338,3.433
			c-0.93,1.473-1.568,3.326-1.92,5.56c-0.336,2.138-0.309,4.021,0.084,5.65c0.391,1.629,1.078,3.032,2.063,4.206
			c0.986,1.177,2.242,2.133,3.77,2.869c1.525,0.738,3.262,1.26,5.205,1.564c1.553,0.244,3.059,0.395,4.52,0.448
			c1.459,0.057,3.086-0.074,4.877-0.391l0.086,5.165c-1.801,0.364-3.596,0.543-5.387,0.535c-1.789-0.007-3.705-0.171-5.746-0.492
			c-2.721-0.427-5.15-1.195-7.291-2.303c-2.141-1.106-3.91-2.518-5.307-4.23c-1.4-1.714-2.375-3.745-2.926-6.097
			C1520.657,2747.497,1520.61,2744.863,1521.067,2741.949z"/>
		<path d="M1575.594,2732.297c4.564,0.718,7.865,2.691,9.895,5.923c2.031,3.231,2.594,7.737,1.686,13.518l-0.332,2.112
			l-24.191-3.801c-0.307,3.537,0.428,6.377,2.207,8.522c1.777,2.146,4.537,3.514,8.279,4.102c2.137,0.335,3.984,0.452,5.545,0.348
			c1.557-0.103,2.756-0.287,3.596-0.555v5.227c-0.791,0.274-2.166,0.48-4.129,0.62s-4.137,0.022-6.516-0.352
			c-2.914-0.458-5.406-1.31-7.475-2.555c-2.07-1.247-3.711-2.761-4.924-4.545c-1.213-1.782-2.014-3.813-2.402-6.089
			c-0.391-2.274-0.385-4.677,0.012-7.203c0.473-3.011,1.346-5.563,2.619-7.651s2.779-3.744,4.516-4.966
			c1.732-1.221,3.605-2.046,5.613-2.478C1571.602,2732.043,1573.6,2731.984,1575.594,2732.297z M1581.489,2748.007
			c0.449-2.865,0.053-5.256-1.189-7.168c-1.242-1.913-3.102-3.063-5.58-3.452c-1.408-0.222-2.727-0.153-3.951,0.2
			c-1.225,0.356-2.32,0.904-3.283,1.649c-0.963,0.744-1.775,1.638-2.436,2.679c-0.662,1.042-1.156,2.132-1.486,3.276
			L1581.489,2748.007z"/>
	</g>
	<g id="XMLID_733_">
		<polygon id="XMLID_1191_" fill="#FFFFFF" points="1804.185,2880.016 1293.879,3023.531 1146.543,2813.869 		"/>
		<path id="XMLID_721_" d="M1883.467,2874.284c-3.344-5.492-10.508-10.029-17.432-10.746l-747.193-74.981
			c-4.537-0.478-8.357,0.955-10.029,3.582c-1.671,2.627-1.193,6.447,1.434,10.029l167.635,238.079
			c1.432,1.911,3.343,3.821,5.492,5.492c1.432,0.956,3.104,1.911,4.775,2.627c4.299,1.672,8.597,2.149,11.939,1.433l579.797-163.098
			C1885.138,2885.03,1886.809,2880.016,1883.467,2874.284z M1293.879,3023.531l-147.336-209.662l657.643,66.146L1293.879,3023.531z"
			/>
	</g>
</g>
</svg>
