<?xml version="1.0" encoding="utf-8"?>
<!-- Generator: Adobe Illustrator 16.0.0, SVG Export Plug-In . SVG Version: 6.00 Build 0)  -->
<!DOCTYPE svg PUBLIC "-//W3C//DTD SVG 1.1//EN" "http://www.w3.org/Graphics/SVG/1.1/DTD/svg11.dtd">
<svg version="1.1" id="Layer_1" xmlns="http://www.w3.org/2000/svg" xmlns:xlink="http://www.w3.org/1999/xlink" x="0px" y="0px"
	 width="2121.715px" height="1802.116px" viewBox="335.238 1905.829 2121.715 1802.116"
	 enable-background="new 335.238 1905.829 2121.715 1802.116" xml:space="preserve">
<path id="XMLID_276_" fill="#00FFB6" d="M2248.04,3707.945H544.151c-115.478,0-208.913-93.436-208.913-208.913v-1384.29
	c0-115.478,93.436-208.913,208.913-208.913H2248.04c115.478,0,208.913,93.436,208.913,208.913v1384.29
	C2456.953,3614.51,2363.517,3707.945,2248.04,3707.945z"/>
<path id="XMLID_160_" fill="none" stroke="#0560BC" stroke-width="8" stroke-linecap="round" stroke-linejoin="round" stroke-miterlimit="10" d="
	M2421.974,3460.46"/>
<g>
	<path fill="#FFFFFF" stroke="#000000" stroke-width="5" stroke-miterlimit="10" d="M1479.469,2475.069
		c5.75-6.708,7.188-13.896,2.875-21.562c-11.739-20.125-25.635-38.813-44.082-53.666c-12.938-10.302-27.072-16.291-44.322-15.813
		c-26.354,0.719-52.708,0.719-79.062,0c-15.573-0.239-28.989,4.313-41.208,13.417c-17.488,12.697-30.426,29.229-41.926,47.196
		c-11.261,17.49-10.781,20.604,2.396,35.938c11.739,13.656,23.479,27.552,35.218,41.207c-6.708,8.865-10.781,17.969-2.875,27.313
		c8.146,9.583,17.969,7.188,27.791,0c-0.479,6.229-0.718,11.021-0.958,15.813c-5.271,63.968-10.541,127.936-15.572,191.663
		c-1.198,16.292,9.104,29.229,24.197,30.427c15.813,1.198,27.791-9.583,29.229-26.354c4.313-52.468,8.386-105.176,12.938-157.644
		c0.958-12.219,2.156-24.677,3.354-36.896h14.854c2.156,25.396,4.073,50.313,6.229,75.229c3.114,39.771,6.229,79.301,9.583,119.071
		c1.438,17.489,13.416,28.03,29.708,26.593c15.333-1.438,25.155-14.375,23.718-31.385c-4.313-53.426-8.864-106.613-13.176-160.039
		c-1.198-15.094-2.396-30.187-3.594-45.52c1.197,0,1.916,0,2.156,0.239c10.541,6.469,18.207,6.469,24.676,0
		s6.948-14.614,0.479-24.677c-2.636-3.833-0.958-5.989,1.438-8.625C1455.271,2503.34,1467.25,2489.205,1479.469,2475.069z"/>
	
		<path fill="#FFFFFF" stroke="#000000" stroke-width="5" stroke-linecap="round" stroke-linejoin="round" stroke-miterlimit="10" d="
		M1294.993,2498.069c-2.875-3.114-4.792-5.271-6.708-7.427c-7.188-8.386-14.615-16.771-21.803-25.396
		c-1.437-1.678-3.113-5.271-2.395-6.469c8.145-12.458,17.729-23.958,30.905-34.021V2498.069L1294.993,2498.069z"/>
	
		<path fill="#FFFFFF" stroke="#000000" stroke-width="5" stroke-linecap="round" stroke-linejoin="round" stroke-miterlimit="10" d="
		M1413.585,2498.549v-72.114c0.719-0.479,1.198-0.958,1.917-1.438c10.301,11.5,20.604,23,31.145,34.979
		C1435.386,2473.153,1425.084,2485.132,1413.585,2498.549z"/>
	<path fill="#FFFFFF" stroke="#000000" stroke-width="5" stroke-miterlimit="10" d="M1403.043,2323.176
		c0,27.073-21.801,48.875-48.874,48.875c-26.833,0.239-48.635-22.042-48.635-49.114c2.396-26.593,18.927-48.155,48.396-48.395
		C1381.002,2274.302,1403.043,2296.344,1403.043,2323.176z"/>
</g>
<path id="Shape" fill="#EFEFEF" stroke="#000000" stroke-width="5" stroke-miterlimit="10" d="M1481.146,3171.767h318.4v290.609
	c0,6.708-6.947,12.219-15.572,12.219h-302.828V3171.767z"/>
<path id="Shape_5_" fill="#EFEFEF" stroke="#000000" stroke-width="5" stroke-miterlimit="10" d="M947.124,3206.984h313.13v267.61
	H962.696c-8.625,0-15.573-5.989-15.573-13.655L947.124,3206.984L947.124,3206.984z"/>
<path id="Shape_14_" fill="#D7D7D7" stroke="#000000" stroke-width="5" stroke-miterlimit="10" d="M931.311,3174.881h297.078v54.385
	H931.311c-8.625,0-15.573-5.989-15.573-13.656v-27.072C915.738,3181.11,922.686,3174.881,931.311,3174.881z"/>
<path id="Shape_15_" fill="#D7D7D7" stroke="#000000" stroke-width="5" stroke-miterlimit="10" d="M1518.281,3172.725h297.078
	c8.625,0,15.572,5.99,15.572,13.656v27.313c0,7.427-6.947,13.656-15.572,13.656h-297.078V3172.725z"/>
<g>
	
		<rect id="Rectangle-path" x="1181.672" y="2873.251" fill="#FFEC00" stroke="#000000" stroke-width="7" stroke-miterlimit="10" width="377.098" height="598.948"/>
	<path id="Rectangle-path_1_" fill="#F4DC03" stroke="#000000" stroke-width="7" stroke-miterlimit="10" d="M1177.839,2792.033
		h377.098c11.5,0,20.844,8.146,20.844,18.208v36.416c0,10.063-9.344,18.208-20.844,18.208h-377.098
		c-11.5,0-20.844-8.146-20.844-18.208v-36.416C1156.995,2800.179,1166.339,2792.033,1177.839,2792.033z"/>
</g>
<g>
	<g>
		<g>
			<g>
				<path d="M1247.316,1965.484c-9.822,9.822-9.822,25.635,0,35.457c9.823,9.823,25.635,9.823,35.458,0
					c9.823-9.822,9.823-25.635,0-35.457C1272.951,1955.661,1256.9,1955.661,1247.316,1965.484z M1270.795,1988.963
					c-3.354,3.354-8.624,3.354-11.738,0c-3.115-3.354-3.354-8.625,0-11.739c3.354-3.354,8.624-3.354,11.738,0
					C1273.91,1980.578,1273.91,1985.849,1270.795,1988.963z"/>
			</g>
		</g>
		<g>
			<g>
				<g>
					<path d="M1158.672,2170.324c-3.114-2.156-7.426-1.197-9.583,1.917c-2.156,3.114-1.198,7.427,1.917,9.583
						c0,0,0.239,0,0.239,0.24c34.021,21.562,60.374,53.426,75.707,90.8l9.823,24.438c1.438,3.594,5.51,5.271,9.104,3.833
						c0.959-0.239,1.678-0.958,2.156-1.438c1.917-1.916,2.636-5.031,1.438-7.666l-10.063-24.438
						C1223.597,2227.584,1195.088,2193.563,1158.672,2170.324z"/>
				</g>
			</g>
			<g>
				<g>
					<circle cx="1123.933" cy="2157.866" r="13.896"/>
				</g>
			</g>
		</g>
		<g>
			<g>
				<g>
					<path d="M1067.153,2261.604c-3.594-1.198-7.667,0.479-8.865,4.313c-1.197,3.833,0.479,7.666,4.313,8.864h0.24
						c38.332,12.938,71.634,37.135,95.353,69.957l15.572,21.322c2.156,3.115,6.708,3.834,9.583,1.438
						c0.719-0.479,1.438-1.197,1.917-1.916c1.438-2.396,1.438-5.511-0.24-7.667l-15.572-21.322
						C1143.818,2301.614,1108.121,2275.5,1067.153,2261.604z"/>
				</g>
			</g>
			<g>
				<g>
					<circle cx="1030.258" cy="2258.011" r="13.896"/>
				</g>
			</g>
		</g>
		<g>
			<g>
				<path d="M1357.044,1982.734l-30.187,29.947c-3.354,3.354-3.354,8.625,0,11.979l29.947,30.188c3.354,3.354,8.625,3.354,11.979,0
					l30.188-29.947c3.354-3.354,3.354-8.625,0-11.979l-29.947-30.187C1365.669,1979.38,1360.398,1979.38,1357.044,1982.734z
					 M1381.002,2018.91l-18.208,17.969l-17.968-18.208l18.207-17.969L1381.002,2018.91z"/>
			</g>
		</g>
		<g>
			<g>
				<path d="M1360.398,2096.534c-5.031,0-9.344,4.073-9.584,9.104l-2.156,128.894c0,5.271,4.073,9.583,9.344,9.822
					c5.271,0,9.584-4.072,9.823-9.344l2.156-128.894C1369.981,2100.847,1365.669,2096.534,1360.398,2096.534z"/>
			</g>
		</g>
		<g>
			<g>
				<path d="M1215.931,2028.973c-2.875-1.438-6.229-1.198-8.864,0.719l-19.886,14.854l-23.479-7.905
					c-4.552-1.198-9.344,1.677-10.541,6.229c-0.479,1.438-0.479,2.875,0,4.313l7.906,23.479l-14.854,19.886
					c-2.875,3.594-1.917,8.864,1.677,11.739c1.438,1.198,3.354,1.677,5.031,1.677l24.677-0.239l14.375,20.124
					c2.636,3.834,7.906,4.792,11.5,2.156c1.438-0.958,2.636-2.635,3.114-4.313l7.427-23.718l23.719-7.188
					c4.313-1.438,6.948-5.989,5.511-10.542c-0.479-1.677-1.678-3.354-3.115-4.312l-20.125-14.375l0.479-24.677
					C1220.484,2033.285,1218.806,2030.41,1215.931,2028.973z M1203.473,2065.389c0,2.636,1.198,5.271,3.594,6.948l10.063,7.187
					l-11.739,3.594c-2.636,0.719-4.792,2.875-5.511,5.511l-3.594,11.739l-6.948-10.063c-1.677-2.156-4.072-3.594-6.947-3.594
					l-12.219,0.24l7.427-9.823c1.677-2.156,2.156-5.031,1.198-7.666l-4.313-11.739l11.5,3.833c2.635,0.958,5.51,0.479,7.666-1.198
					l9.823-7.188V2065.389z"/>
			</g>
		</g>
	</g>
	<g>
		<g>
			<g>
				<path d="M1451.199,2022.025c-9.823,9.822-9.823,25.635,0,35.457c9.822,9.823,25.635,9.823,35.457,0
					c9.822-9.822,9.822-25.635,0-35.457C1476.834,2012.202,1461.021,2012.202,1451.199,2022.025z M1462.938,2033.765
					c3.354-3.354,8.624-3.354,11.739,0c3.354,3.354,3.354,8.624,0,11.739c-3.354,3.354-8.625,3.354-11.739,0
					C1459.823,2042.149,1459.823,2036.879,1462.938,2033.765z"/>
			</g>
		</g>
		<g>
			<g>
				<g>
					<path d="M1465.812,2242.198l-10.063,24.438c-0.958,2.635-0.479,5.51,1.438,7.666c0.719,0.719,1.438,1.198,2.156,1.438
						c3.594,1.438,7.667-0.239,9.104-3.833l10.063-24.438c15.333-37.374,41.687-68.998,75.707-90.8c0,0,0.239,0,0.239-0.24
						c3.115-2.156,4.073-6.469,1.917-9.583s-6.469-4.072-9.583-1.916C1510.375,2168.168,1482.104,2202.188,1465.812,2242.198z"/>
				</g>
			</g>
			<g>
				<g>
					<circle cx="1581.769" cy="2132.471" r="13.896"/>
				</g>
			</g>
		</g>
		<g>
			<g>
				<g>
					<path d="M1564.519,2332.999l-15.572,21.322c-1.678,2.156-1.678,5.271-0.24,7.667c0.479,0.719,1.198,1.438,1.917,1.916
						c3.114,2.156,7.427,1.678,9.583-1.438l15.573-21.322c23.718-32.583,57.02-57.02,95.353-69.957h0.239
						c3.594-1.198,5.511-5.271,4.313-8.864s-5.271-5.511-8.864-4.313C1625.612,2271.906,1590.154,2298.021,1564.519,2332.999z"/>
				</g>
			</g>
			<g>
				<g>
					<circle cx="1703.475" cy="2254.656" r="13.896"/>
				</g>
			</g>
		</g>
		<g>
			<g>
				<path d="M1656.998,2109.711l0.479,24.677l-20.125,14.375c-1.438,0.958-2.635,2.635-3.114,4.313
					c-1.438,4.313,1.198,9.104,5.511,10.541l23.719,7.188l7.426,23.719c0.479,1.677,1.678,3.354,3.115,4.313
					c3.833,2.635,8.864,1.677,11.5-2.156l14.135-20.125l24.677,0.239c1.917,0,3.594-0.479,5.031-1.677
					c3.594-2.875,4.313-7.906,1.677-11.739l-14.854-19.885l7.906-23.479c0.479-1.438,0.479-2.875,0-4.313
					c-1.198-4.552-5.99-7.427-10.542-6.229l-23.479,7.906l-19.886-14.854c-2.635-1.916-5.989-2.156-8.864-0.719
					C1658.914,2103.482,1656.998,2106.357,1656.998,2109.711z M1674.008,2126.242l9.822,7.188c2.156,1.677,5.031,2.156,7.667,1.197
					l11.499-3.833l-3.832,11.5c-0.959,2.636-0.48,5.511,1.197,7.666l7.427,9.823l-12.218-0.24c-2.636,0-5.271,1.198-6.948,3.594
					l-6.948,10.063l-3.594-11.739c-0.719-2.636-2.875-4.552-5.51-5.51l-11.74-3.594l10.063-7.188
					c2.156-1.677,3.594-4.073,3.594-6.948L1674.008,2126.242z"/>
			</g>
		</g>
	</g>
</g>
<path fill="#00FFB6" stroke="#000000" stroke-width="4" stroke-miterlimit="10" d="M1222.4,3208.662l76.904,76.904
	c3.115,3.115,7.667,5.031,12.219,5.031c4.553,0,9.104-1.916,12.219-5.031l204.602-204.601c6.707-6.708,6.707-17.729,0-24.437
	c-6.709-6.709-17.729-6.709-24.438,0l-192.383,192.382l-64.686-64.687c-6.709-6.708-17.729-6.708-24.438,0
	S1215.692,3201.953,1222.4,3208.662L1222.4,3208.662z"/>
</svg>
