<?xml version="1.0" encoding="utf-8"?>
<!-- Generator: Adobe Illustrator 19.0.0, SVG Export Plug-In . SVG Version: 6.00 Build 0)  -->
<svg version="1.1" id="Layer_1" xmlns="http://www.w3.org/2000/svg" xmlns:xlink="http://www.w3.org/1999/xlink" x="0px" y="0px"
	 viewBox="197 -26.8 1005.7 845.8" style="enable-background:new 197 -26.8 1005.7 845.8;" xml:space="preserve">
<style type="text/css">
	.st0{fill:#FFFFFF;}
	.st1{fill:#529ADB;}
	.st2{font-family:'Ubuntu-Medium';}
	.st3{font-size:55.5px;}
	.st4{fill:#CFFFF0;}
	.st5{fill:#E6FFFC;}
	.st6{fill:none;stroke:#000000;stroke-width:8;stroke-miterlimit:10;}
	.st7{fill:#00FFB6;}
	.st8{fill:none;stroke:#000000;stroke-width:14;stroke-miterlimit:10;}
	.st9{fill:#05E29E;}
	.st10{fill:#FF6C88;}
	.st11{fill:#FCFCFC;}
	.st12{fill:#FCFCFC;stroke:#000000;stroke-width:8;stroke-linecap:round;stroke-linejoin:round;stroke-miterlimit:10;}
	.st13{fill:#FCFCFC;stroke:#000000;stroke-width:6;stroke-linecap:round;stroke-linejoin:round;stroke-miterlimit:10;}
	.st14{fill:#FCFCFC;stroke:#000000;stroke-width:2;stroke-linecap:round;stroke-linejoin:round;stroke-miterlimit:10;}
	.st15{fill:none;stroke:#000000;stroke-width:10;stroke-linecap:round;stroke-miterlimit:10;}
</style>
<rect id="XMLID_301_" x="197" y="-26.8" class="st0" width="1005.7" height="845.8"/>
<g id="XMLID_3_">
	<text transform="matrix(1 0 0 1 391.9396 721.8154)" class="st1 st2 st3"> </text>
	<text transform="matrix(1 0 0 1 404.8396 721.8154)" class="st2 st3">SELECT AND ASSIGN</text>
</g>
<g id="XMLID_447_">
	<g id="XMLID_196_">
		<g id="XMLID_343_">
			<g id="XMLID_309_">
				<g id="XMLID_322_">
					<path id="XMLID_323_" class="st4" d="M508.2,230.2h417.7c4.4,0,8-3.6,8-8v-48.7c0-4.4-3.6-8-8-8H508.2c-4.4,0-8,3.6-8,8v48.7
						C500.2,226.6,503.8,230.2,508.2,230.2z"/>
				</g>
				<g id="XMLID_320_">
					<path id="XMLID_321_" class="st4" d="M534.7,256.1h417.7c4.4,0,8-3.6,8-8v-48.7c0-4.4-3.6-8-8-8H534.7c-4.4,0-8,3.6-8,8v48.7
						C526.7,252.5,530.3,256.1,534.7,256.1z"/>
				</g>
				<g id="XMLID_318_">
					<path id="XMLID_319_" class="st4" d="M440.3,327.8h403.8c8.2,0,14.9-6.7,14.9-14.9v-84.2c0-8.2-6.7-14.9-14.9-14.9H440.3
						c-8.2,0-14.9,6.7-14.9,14.9v84.2C425.3,321.1,432.1,327.8,440.3,327.8z"/>
				</g>
				<g id="XMLID_316_">
					<path id="XMLID_317_" class="st4" d="M499.7,382h403.8c8.2,0,14.9-6.7,14.9-14.9v-33.7c0-8.2-6.7-14.9-14.9-14.9H499.7
						c-8.2,0-14.9,6.7-14.9,14.9v33.7C484.8,375.2,491.5,382,499.7,382z"/>
				</g>
				<g id="XMLID_314_">
					<path id="XMLID_315_" class="st4" d="M381.6,426.7h403.8c8.2,0,14.9-6.7,14.9-14.9v-50.1c0-8.2-6.7-14.9-14.9-14.9H381.6
						c-8.2,0-14.9,6.7-14.9,14.9v50.1C366.6,419.9,373.3,426.7,381.6,426.7z"/>
				</g>
				<g id="XMLID_312_">
					<path id="XMLID_313_" class="st4" d="M564.6,465.5h403.8c8.2,0,14.9-6.7,14.9-14.9v-21.9c0-8.2-6.7-14.9-14.9-14.9H564.6
						c-8.2,0-14.9,6.7-14.9,14.9v21.9C549.7,458.7,556.4,465.5,564.6,465.5z"/>
				</g>
				<g id="XMLID_310_">
					<path id="XMLID_311_" class="st4" d="M505.2,525.5h410.4c8.2,0,14.9-6.7,14.9-14.9v-47.8c0-8.2-6.7-14.9-14.9-14.9H505.2
						c-8.2,0-14.9,6.7-14.9,14.9v47.8C490.3,518.7,497,525.5,505.2,525.5z"/>
				</g>
			</g>
		</g>
		<path id="XMLID_340_" class="st5" d="M801.4,268.9h-359c-4.4,0-8-3.6-8-8v-44.8c0-4.4,3.6-8,8-8h359c4.4,0,8,3.6,8,8v44.8
			C809.4,265.3,805.8,268.9,801.4,268.9z"/>
		<g id="XMLID_303_">
			<g id="XMLID_207_">
				<g id="XMLID_232_">
					<g id="XMLID_233_">
						<line id="XMLID_234_" class="st6" x1="356.5" y1="115.2" x2="506.9" y2="115.2"/>
					</g>
				</g>
				<g id="XMLID_208_">
					<g id="XMLID_230_">
						<line id="XMLID_231_" class="st6" x1="366.5" y1="87" x2="426.2" y2="87"/>
					</g>
					<g id="XMLID_209_">
						<line id="XMLID_229_" class="st6" x1="438.4" y1="87" x2="473.8" y2="87"/>
					</g>
				</g>
			</g>
		</g>
		<g id="XMLID_265_">
			<g id="XMLID_210_">
				<g id="XMLID_226_">
					<g id="XMLID_227_">
						<line id="XMLID_228_" class="st6" x1="931.5" y1="330.5" x2="1001" y2="330.5"/>
					</g>
				</g>
				<g id="XMLID_211_">
					<g id="XMLID_224_">
						<line id="XMLID_225_" class="st6" x1="936.1" y1="358.7" x2="963.7" y2="358.7"/>
					</g>
					<g id="XMLID_212_">
						<line id="XMLID_223_" class="st6" x1="969.3" y1="358.7" x2="985.7" y2="358.7"/>
					</g>
				</g>
			</g>
		</g>
		<g id="XMLID_197_">
			<g id="XMLID_213_">
				<g id="XMLID_220_">
					<g id="XMLID_221_">
						<line id="XMLID_222_" class="st6" x1="496.1" y1="561.5" x2="598.5" y2="561.5"/>
					</g>
				</g>
				<g id="XMLID_214_">
					<g id="XMLID_217_">
						<line id="XMLID_218_" class="st6" x1="502.9" y1="589.8" x2="543.6" y2="589.8"/>
					</g>
					<g id="XMLID_215_">
						<line id="XMLID_216_" class="st6" x1="551.8" y1="589.8" x2="575.9" y2="589.8"/>
					</g>
				</g>
			</g>
		</g>
	</g>
	<path id="XMLID_189_" class="st7" d="M900.7,501.3H501.6c-10.4,0-19-8.5-19-19V156.5c0-10.4,8.5-19,19-19h399.1
		c10.4,0,19,8.5,19,19v325.8C919.7,492.8,911.1,501.3,900.7,501.3z"/>
	<polyline id="XMLID_188_" class="st8" points="603.6,172.6 846.6,172.6 870.6,172.6 	"/>
	<path id="XMLID_187_" class="st8" d="M888.3,299v211.7c0,10.4-8,19-17.7,19H474c-9.7,0-17.7-8.5-17.7-19v-319c0-10.4,8-19,17.7-19
		h54.5"/>
	<g id="XMLID_162_">
		<path id="XMLID_184_" class="st9" d="M582.3,316.6h-52c-10.4,0-19-8.5-19-19v-52c0-10.4,8.5-19,19-19h52c10.4,0,19,8.5,19,19v52
			C601.3,308,592.8,316.6,582.3,316.6z"/>
		<path id="XMLID_5_" class="st10" d="M530.3,309.6c-6.6,0-12-5.4-12-12v-52c0-6.6,5.4-12,12-12h52c6.6,0,12,5.4,12,12v52
			c0,6.6-5.4,12-12,12H530.3z"/>
		<path id="XMLID_432_" class="st6" d="M537.9,300c-6.6,0-12-5.4-12-12v-52c0-6.6,5.4-12,12-12h52c6.6,0,12,5.4,12,12v52
			c0,6.6-5.4,12-12,12H537.9z"/>
		<path id="XMLID_178_" class="st10" d="M766.3,151.6h-52c-10.4,0-19-8.5-19-19v-52c0-10.4,8.5-19,19-19h52c10.4,0,19,8.5,19,19v52
			C785.3,143,776.8,151.6,766.3,151.6z"/>
		<path id="XMLID_175_" class="st9" d="M703.8,316.6h-52c-10.4,0-19-8.5-19-19v-52c0-10.4,8.5-19,19-19h52c10.4,0,19,8.5,19,19v52
			C722.8,308,714.3,316.6,703.8,316.6z"/>
		<path id="XMLID_172_" class="st9" d="M825.3,316.6h-52c-10.4,0-19-8.5-19-19v-52c0-10.4,8.5-19,19-19h52c10.4,0,19,8.5,19,19v52
			C844.3,308,835.8,316.6,825.3,316.6z"/>
		<path id="XMLID_169_" class="st9" d="M582.3,445.6h-52c-10.4,0-19-8.5-19-19v-52c0-10.4,8.5-19,19-19h52c10.4,0,19,8.5,19,19v52
			C601.3,437,592.8,445.6,582.3,445.6z"/>
		<path id="XMLID_166_" class="st9" d="M703.8,445.6h-52c-10.4,0-19-8.5-19-19v-52c0-10.4,8.5-19,19-19h52c10.4,0,19,8.5,19,19v52
			C722.8,437,714.3,445.6,703.8,445.6z"/>
		<path id="XMLID_163_" class="st9" d="M825.3,445.6h-52c-10.4,0-19-8.5-19-19v-52c0-10.4,8.5-19,19-19h52c10.4,0,19,8.5,19,19v52
			C844.3,437,835.8,445.6,825.3,445.6z"/>
	</g>
	<g id="XMLID_7_">
		<path id="XMLID_158_" class="st11" d="M574.6,368.3l-33.9,29.4l9.1,11.9l70.3,0.2c0,0,11.7-22.6,11.7-27.8s-0.8-30.2-0.8-30.2
			L574.6,368.3z"/>
		<g id="XMLID_8_">
			<path id="XMLID_143_" class="st12" d="M620.8,407.7c0,0,7.2-12.2,8.3-14.9s2.7-8,2.7-8l-1.6-50.5c0-5.6-4.5-10.1-10.1-10.1l0,0
				c-5.6,0-10.1,4.5-10.1,10.1"/>
			<path id="XMLID_98_" class="st13" d="M610.4,361l-0.5-32.5c0-5.6-4.5-10.1-10.1-10.1l0,0c-5.6,0-10.1,4.5-10.1,10.1l0.5,36.7
				v-40.4c0-5.6-4.5-10.1-10.1-10.1l0,0c-5.6,0-10.1,4.5-10.1,10.1l-1,31.1v-79.2c0-5.6-4.5-10.1-10.1-10.1l0,0
				c-5.6,0-10.1,4.5-10.1,10.1v54.8l-0.7,3.5c0,0-12.7,8.3-13.7,15.8s1.1,28.7,1.1,35.6s12.8,21.3,12.8,21.3"/>
			<path id="XMLID_96_" class="st14" d="M564.4,282.4v-5.5c0-2.3-1.9-4.3-4.3-4.3h-2.7c-2.3,0-4.3,1.9-4.3,4.3v5.5H564.4z"/>
			<g id="XMLID_88_">
				<polyline id="XMLID_93_" class="st14" points="554.6,304.4 554.6,304.4 563.3,304.4 				"/>
				<polyline id="XMLID_91_" class="st14" points="554.5,301.1 554.5,301.1 563.2,301.1 				"/>
			</g>
		</g>
	</g>
	<g id="XMLID_4_">
		<path id="XMLID_6_" class="st15" d="M552.4,244.4c0,0-15.7-128.4,120.5-132.3"/>
		<polyline id="XMLID_46_" class="st15" points="665.1,97.6 682.6,113.1 670.1,131.1 		"/>
	</g>
</g>
</svg>
