<?xml version="1.0" encoding="utf-8"?>
<!-- Generator: Adobe Illustrator 19.0.0, SVG Export Plug-In . SVG Version: 6.00 Build 0)  -->
<svg version="1.1" id="Layer_1" xmlns="http://www.w3.org/2000/svg" xmlns:xlink="http://www.w3.org/1999/xlink" x="0px" y="0px"
	 viewBox="199 -32 1009 857" style="enable-background:new 199 -32 1009 857;" xml:space="preserve">
<style type="text/css">
	.st0{fill:#FFFFFF;}
	.st1{font-family:'Ubuntu-Medium';}
	.st2{font-size:55.5px;}
	.st3{fill:#CFFFF0;}
	.st4{fill:none;stroke:#000000;stroke-width:8;stroke-miterlimit:10;}
	.st5{fill:#FFE70B;}
	.st6{fill:#00FFB6;stroke:#000000;stroke-width:8;stroke-miterlimit:10;}
	.st7{font-size:30.8867px;}
</style>
<rect x="199" y="-32" class="st0" width="1009" height="857"/>
<g id="XMLID_1046_">
	<text id="XMLID_23_" transform="matrix(1 0 0 1 581.7784 662.2098)" class="st1 st2">SHARE</text>
</g>
<g id="XMLID_1029_">
	<g id="XMLID_1030_">
		<g id="XMLID_1112_">
			<g id="XMLID_586_">
				<g id="XMLID_599_">
					<path id="XMLID_600_" class="st3" d="M880.5,263.5H462.8c-4.4,0-8-3.6-8-8v-48.7c0-4.4,3.6-8,8-8h417.7c4.4,0,8,3.6,8,8v48.7
						C888.5,259.9,884.9,263.5,880.5,263.5z"/>
				</g>
				<g id="XMLID_597_">
					<path id="XMLID_598_" class="st3" d="M854,289.4H436.3c-4.4,0-8-3.6-8-8v-48.7c0-4.4,3.6-8,8-8H854c4.4,0,8,3.6,8,8v48.7
						C862,285.8,858.4,289.4,854,289.4z"/>
				</g>
				<g id="XMLID_595_">
					<path id="XMLID_596_" class="st3" d="M948.4,361.1H544.6c-8.2,0-14.9-6.7-14.9-14.9V262c0-8.2,6.7-14.9,14.9-14.9h403.8
						c8.2,0,14.9,6.7,14.9,14.9v84.2C963.3,354.4,956.6,361.1,948.4,361.1z"/>
				</g>
				<g id="XMLID_593_">
					<path id="XMLID_594_" class="st3" d="M889,415.2H485.2c-8.2,0-14.9-6.7-14.9-14.9v-33.7c0-8.2,6.7-14.9,14.9-14.9H889
						c8.2,0,14.9,6.7,14.9,14.9v33.7C903.9,408.5,897.2,415.2,889,415.2z"/>
				</g>
				<g id="XMLID_591_">
					<path id="XMLID_592_" class="st3" d="M1007.1,459.9H603.3c-8.2,0-14.9-6.7-14.9-14.9v-50.1c0-8.2,6.7-14.9,14.9-14.9h403.8
						c8.2,0,14.9,6.7,14.9,14.9V445C1022,453.2,1015.3,459.9,1007.1,459.9z"/>
				</g>
				<g id="XMLID_589_">
					<path id="XMLID_590_" class="st3" d="M824,498.7H420.2c-8.2,0-14.9-6.7-14.9-14.9v-21.9c0-8.2,6.7-14.9,14.9-14.9H824
						c8.2,0,14.9,6.7,14.9,14.9v21.9C839,492,832.2,498.7,824,498.7z"/>
				</g>
				<g id="XMLID_587_">
					<path id="XMLID_588_" class="st3" d="M883.5,558.7H473.1c-8.2,0-14.9-6.7-14.9-14.9V496c0-8.2,6.7-14.9,14.9-14.9h410.4
						c8.2,0,14.9,6.7,14.9,14.9v47.8C898.4,552,891.7,558.7,883.5,558.7z"/>
				</g>
			</g>
		</g>
		<path id="XMLID_1109_" class="st3" d="M587.2,302.2h359c4.4,0,8-3.6,8-8v-44.8c0-4.4-3.6-8-8-8h-359c-4.4,0-8,3.6-8,8v44.8
			C579.2,298.6,582.8,302.2,587.2,302.2z"/>
		<g id="XMLID_1087_">
			<g id="XMLID_502_">
				<g id="XMLID_508_">
					<g id="XMLID_509_">
						<line id="XMLID_525_" class="st4" x1="639.1" y1="157.5" x2="488.7" y2="157.5"/>
					</g>
				</g>
				<g id="XMLID_503_">
					<g id="XMLID_506_">
						<line id="XMLID_507_" class="st4" x1="629.1" y1="129.2" x2="569.4" y2="129.2"/>
					</g>
					<g id="XMLID_504_">
						<line id="XMLID_505_" class="st4" x1="557.3" y1="129.2" x2="521.9" y2="129.2"/>
					</g>
				</g>
			</g>
		</g>
		<g id="XMLID_1065_">
			<g id="XMLID_485_">
				<g id="XMLID_491_">
					<g id="XMLID_492_">
						<line id="XMLID_493_" class="st4" x1="1012.2" y1="465.8" x2="942.7" y2="465.8"/>
					</g>
				</g>
				<g id="XMLID_486_">
					<g id="XMLID_489_">
						<line id="XMLID_490_" class="st4" x1="1007.6" y1="494" x2="980" y2="494"/>
					</g>
					<g id="XMLID_487_">
						<line id="XMLID_488_" class="st4" x1="974.4" y1="494" x2="958" y2="494"/>
					</g>
				</g>
			</g>
		</g>
	</g>
</g>
<path id="XMLID_240_" class="st5" d="M899.7,489.2H464.9c-10.4,0-19-8.5-19-19V428c0-10.4,8.5-19,19-19h434.7c10.4,0,19,8.5,19,19
	v42.2C918.7,480.6,910.1,489.2,899.7,489.2z"/>
<g id="XMLID_239_">
	<path id="XMLID_806_" d="M538.9,328.9c-1-0.7-1.9-1.6-2.4-2.6L498,262.2c-1.1-1.9-1-3.6,0.4-4.6c1.3-1,3.6-1,6-0.1l385.2,156.9
		c3.2,1.3,5.5,4.1,5.4,6.4s-2.7,3.4-5.9,2.6l-346.8-92.7C541.1,330.2,539.9,329.6,538.9,328.9z M514.7,270.9l30.8,51.4l277.7,74.3
		L514.7,270.9z"/>
	<path id="XMLID_737_" d="M524.5,417.7c-2.2-1.6-3.4-3.7-3.1-5.4l14.4-88.8c0.3-2.1,2.8-3,5.8-2.2L888.4,414c3.2,0.9,6,3.4,6.5,5.8
		c0.5,2.5-1.5,4.1-4.5,3.7l-308.7-35.3L532.5,419c-1.7,1.1-4.7,0.7-7.3-0.8C525,418,524.7,417.8,524.5,417.7z M547.5,331.9
		l-11.3,69.9l36.9-23.1c0.8-0.5,2-0.7,3.3-0.6L828.1,407L547.5,331.9z"/>
	<path id="XMLID_714_" d="M442.5,322.3c-1.4-1-2.5-2.3-2.9-3.6c-0.9-2.7,1-4.6,4.3-4.3l59.4,6.1c3.3,0.3,6.8,2.8,7.7,5.5
		s-1,4.6-4.3,4.3l-59.4-6.1C445.6,324,443.9,323.3,442.5,322.3z"/>
	<path id="XMLID_712_" d="M393.8,370.7c-1.4-1-2.5-2.3-2.9-3.6c-0.9-2.7,1-4.6,4.3-4.3l17,1.8c3.3,0.3,6.7,2.8,7.7,5.5
		c0.9,2.7-1,4.6-4.3,4.3l-17-1.8C396.9,372.4,395.2,371.7,393.8,370.7z"/>
	<path id="XMLID_699_" d="M436.2,375.1c-1.4-1-2.5-2.3-3-3.7c-0.9-2.7,1-4.6,4.3-4.3l50.9,5.3c3.3,0.3,6.8,2.8,7.7,5.5
		c0.9,2.7-1,4.6-4.3,4.3L441,377C439.3,376.8,437.6,376.1,436.2,375.1z"/>
	<path id="XMLID_688_" d="M502.5,448.8c-1.4-1-2.5-2.3-3-3.6c-0.9-2.7,1-4.6,4.3-4.3l8.5,0.9c3.3,0.3,6.8,2.8,7.7,5.5
		s-1,4.6-4.3,4.3l-8.5-0.9C505.6,450.5,503.9,449.8,502.5,448.8z"/>
	<path id="XMLID_687_" d="M536.5,452.3c-1.4-1-2.5-2.3-3-3.6c-0.9-2.7,1-4.6,4.3-4.3l42.4,4.4c3.3,0.3,6.8,2.8,7.7,5.5
		c0.9,2.7-1,4.6-4.3,4.3l-42.4-4.4C539.5,454,537.9,453.3,536.5,452.3z"/>
	<polygon id="XMLID_989_" class="st6" points="601.1,380.3 781,404 797.8,315.8 618.3,282.2 	"/>
	<text transform="matrix(0.9879 0.1552 -0.1552 0.9879 622.5332 321.7755)" class="st1 st7">My Work</text>
	<text transform="matrix(0.9879 0.1552 -0.1552 0.9879 617.9858 350.721)" class="st1 st7">Experience</text>
	<g id="XMLID_733_">
		<polygon id="XMLID_1191_" class="st0" points="861.2,420.9 647.5,481 585.8,393.2 		"/>
		<path id="XMLID_721_" d="M894.4,418.5c-1.4-2.3-4.4-4.2-7.3-4.5l-312.9-31.4c-1.9-0.2-3.5,0.4-4.2,1.5c-0.7,1.1-0.5,2.7,0.6,4.2
			l70.2,99.7c0.6,0.8,1.4,1.6,2.3,2.3c0.6,0.4,1.3,0.8,2,1.1c1.8,0.7,3.6,0.9,5,0.6l242.8-68.3C895.1,423,895.8,420.9,894.4,418.5z
			 M647.5,481l-61.7-87.8l275.4,27.7L647.5,481z"/>
	</g>
</g>
</svg>
