<?xml version="1.0" encoding="utf-8"?>
<!-- Generator: Adobe Illustrator 16.0.0, SVG Export Plug-In . SVG Version: 6.00 Build 0)  -->
<!DOCTYPE svg PUBLIC "-//W3C//DTD SVG 1.1//EN" "http://www.w3.org/Graphics/SVG/1.1/DTD/svg11.dtd">
<svg version="1.1" id="Layer_1" xmlns="http://www.w3.org/2000/svg" xmlns:xlink="http://www.w3.org/1999/xlink" x="0px" y="0px"
	 width="2114.776px" height="1796.223px" viewBox="147.337 1936.534 2114.776 1796.223"
	 enable-background="new 147.337 1936.534 2114.776 1796.223" xml:space="preserve">
<path id="XMLID_276_" fill="#FFEC00" d="M2053.884,3732.757H355.567c-115.1,0-208.23-93.131-208.23-208.23V2144.765
	c0-115.1,93.131-208.23,208.23-208.23h1698.316c115.1,0,208.229,93.131,208.229,208.23v1379.762
	C2262.113,3639.626,2168.983,3732.757,2053.884,3732.757z"/>
<g id="XMLID_274_">
	<path id="XMLID_294_" stroke="#000000" stroke-width="0.75" stroke-miterlimit="10" d="M1216.904,3062.218
		c-3.104-31.76-15.044-62.325-1.672-94.324c8.597-20.536-4.06-34.864-26.028-35.103c-6.925,0-13.851,0-21.015,0
		c-23.879,0-33.908,12.178-26.506,35.103c5.254,15.999,7.642,31.521,5.254,47.998c-1.434,10.269-5.492,44.177-6.687,54.206
		c5.253,14.567,10.507,5.971,10.745,21.73h26.984l0,0c11.224,0,22.208,0,33.432,0c2.627-12.178,7.641-1.433,13.611-12.895
		l-2.149-5.254 M1199.949,2960.252c-16.715,36.774-4.537,73.788-2.388,110.563c0,0.955-0.478,1.91-1.194,4.776h-38.207
		c2.389-42.028,15.521-83.102-5.254-126.085c16.478,0,27.939-0.716,39.163,0.479
		C1195.174,2950.223,1200.904,2958.342,1199.949,2960.252z"/>
	<path id="XMLID_767_" stroke="#000000" stroke-width="0.75" stroke-miterlimit="10" d="M1051.657,2725.755
		c3.104-42.745,13.134-88.594,48.237-124.891c39.64-40.834,116.771-49.908,160.471-14.089c27.7,22.686,48.236,54.207,59.938,88.594
		c4.775,14.089,2.627,31.76,0.238,47.042c-3.582,23.402-10.268,46.327-15.044,69.729c-8.835,43.938-36.536,73.072-73.31,95.28
		c-14.806,9.074-30.328,16.954-45.85,24.834c-2.627,1.434-7.641,0.239-10.507-1.433c-10.507-5.731-20.536-12.179-30.805-18.148
		C1083.417,2857.331,1051.419,2802.169,1051.657,2725.755z M1251.529,2692.323c-42.506,27.462-84.295,27.939-127.039,7.88
		c-3.821-1.671-9.791-1.433-13.851,0.478c-22.686,10.985-41.312,54.924-35.819,79.52c13.134,57.311,52.774,89.31,103.16,111.756
		c2.388,0.956,5.97,1.434,8.357,0.478c35.581-15.521,69.968-33.67,89.549-69.012c14.089-25.313,25.551-53.251,9.552-82.146
		C1276.125,2724.561,1263.708,2709.517,1251.529,2692.323z M1299.289,2728.62c1.671,0,3.343,0,5.253,0
		c0.478-15.044,5.254-31.521,0.717-44.655c-11.94-34.625-30.805-67.579-61.132-88.115c-37.014-24.835-78.086-19.104-114.622,3.582
		c-42.506,26.506-53.729,70.684-58.982,117.01c6.687-6.209,11.701-13.611,17.909-19.581c14.089-13.373,27.939-21.014,48.953-9.791
		c31.521,16.716,64.714,15.044,95.758-2.865c10.507-5.97,19.819-14.328,29.85-21.73
		C1264.902,2684.443,1264.902,2684.443,1299.289,2728.62z"/>
	<path id="XMLID_579_" fill="#FFFFFF" stroke="#000000" stroke-width="0.75" stroke-miterlimit="10" d="M1196.367,3075.352
		c-12.895,0-25.073,0-38.207,0c2.389-42.028,15.521-83.101-5.254-126.084c16.478,0,27.939-0.717,39.163,0.478
		c3.104,0.478,8.835,8.358,7.88,10.269c-16.715,36.535-4.775,73.549-2.388,110.563
		C1197.561,3071.77,1197.084,3072.725,1196.367,3075.352z"/>
	<path id="XMLID_135_" fill="#FFFFFF" stroke="#000000" stroke-width="0.75" stroke-miterlimit="10" d="M1251.529,2692.323
		c12.179,17.193,24.596,32.237,33.909,48.953c15.999,28.895,4.537,56.833-9.552,82.146c-19.581,35.104-53.968,53.49-89.549,69.012
		c-2.388,0.956-5.97,0.479-8.357-0.478c-50.625-22.208-90.265-54.445-103.16-111.756c-5.492-24.596,13.134-68.296,35.819-79.52
		c3.821-1.91,10.03-2.388,13.851-0.478C1167.234,2720.263,1209.023,2719.785,1251.529,2692.323z"/>
	<path id="XMLID_110_" fill="#FFFFFF" stroke="#000000" stroke-width="0.75" stroke-miterlimit="10" d="M1299.289,2728.62
		c-34.387-44.177-34.387-44.177-36.297-66.146c-10.03,7.402-19.343,15.521-29.85,21.73c-31.283,17.91-64.475,19.581-95.758,2.865
		c-21.014-11.223-34.864-3.343-48.953,9.791c-6.209,5.97-11.223,13.372-17.909,19.581c5.015-46.326,16.237-90.504,58.982-117.01
		c36.536-22.686,77.608-28.417,114.622-3.582c30.327,20.536,49.431,53.49,61.132,88.116c4.537,13.372-0.239,29.61-0.717,44.654
		C1302.632,2728.62,1300.96,2728.62,1299.289,2728.62z"/>
	<g id="XMLID_889_">
		<g id="XMLID_444_">
			<g id="XMLID_445_">
				<g id="XMLID_448_">
					<g id="XMLID_449_">
						
							<path id="XMLID_460_" fill="#FCFCFC" stroke="#000000" stroke-width="7" stroke-linecap="round" stroke-linejoin="round" stroke-miterlimit="10" d="
							M762.953,2661.041c-8.357,8.357-8.357,21.969,0,30.327c4.299,4.298,9.791,6.209,15.283,6.209s10.984-2.149,15.283-6.209
							l70.684-70.684l-30.328-30.327L762.953,2661.041z"/>
						
							<polygon id="XMLID_451_" fill="#FCFCFC" stroke="#000000" stroke-width="7" stroke-linecap="round" stroke-linejoin="round" stroke-miterlimit="10" points="
							939.424,2530.181 970.228,2514.182 986.466,2483.138 971.422,2468.094 940.139,2484.093 924.379,2514.897 886.888,2552.389 
							902.171,2567.433 						"/>
						
							<path id="XMLID_450_" fill="#FCFCFC" stroke="#000000" stroke-width="7" stroke-linecap="round" stroke-linejoin="round" stroke-miterlimit="10" d="
							M946.348,2611.61l-2.866-0.239c-5.253,0-10.268,1.194-14.805,2.866l-88.354-88.354c1.671-4.537,2.865-9.552,2.865-14.806
							l-0.239-2.865c-1.433-22.447-20.059-40.118-42.744-40.118c-6.686,0-12.895,1.672-18.387,4.299l28.655,28.655
							c1.433,1.433,2.627,3.343,3.343,5.253c1.91,5.016,0.955,10.985-3.343,15.045c-2.866,2.865-6.447,4.298-10.029,4.298
							c-1.672,0-3.344-0.478-5.015-0.955c-1.91-0.717-3.582-1.672-5.254-3.343l-28.655-28.656
							c-2.627,5.492-4.299,11.701-4.299,18.388c0,22.686,17.671,41.312,40.118,42.744l2.865,0.239
							c5.254,0,10.269-1.194,14.806-2.865l88.354,88.354c-1.672,4.537-2.865,9.553-2.865,14.806l0.238,2.866
							c1.433,22.446,20.059,40.117,42.744,40.117c6.687,0,12.896-1.672,18.388-4.298l-28.655-28.656
							c-1.434-1.433-2.627-3.343-3.344-5.253c-1.91-5.015-0.955-10.985,3.344-15.045c2.865-2.865,6.447-4.298,10.029-4.298
							c1.672,0,3.343,0.478,5.015,0.955c1.91,0.717,3.582,1.672,5.254,3.343l28.655,28.656c2.627-5.731,4.298-11.701,4.298-18.388
							C986.466,2631.669,968.556,2613.281,946.348,2611.61z"/>
					</g>
				</g>
			</g>
		</g>
	</g>
	<g id="XMLID_205_">
		<circle id="XMLID_281_" fill="#FFFFFF" cx="1495.579" cy="2439.677" r="6.208"/>
		<circle id="XMLID_339_" fill="#FFFFFF" cx="1392.179" cy="2539.255" r="6.209"/>
		
			<path id="XMLID_243_" fill="none" stroke="#000000" stroke-width="8" stroke-linecap="round" stroke-linejoin="round" stroke-miterlimit="10" d="
			M1630.737,2523.972c15.761-16.716,24.357-37.729,24.357-59.46c0-54.206-54.207-93.369-109.607-93.369
			c-56.117,0-102.204,38.686-105.786,87.399c-53.49,2.627-103.638,41.312-103.638,93.369c0,21.73,8.597,42.744,24.356,59.46
			c3.105,12.896-0.716,26.268-10.029,35.581c-1.91,1.91-2.388,4.537-1.432,6.925c0.955,2.388,3.343,3.82,5.73,3.82
			c17.671,0,34.864-6.925,47.521-19.342c12.417,4.298,28.655,6.687,43.222,6.687c56.117,0,102.205-38.686,105.787-87.399
			c13.133-0.478,26.506-3.104,37.252-6.687c12.656,12.179,29.85,19.104,47.521,19.104c2.626,0,4.775-1.433,5.731-3.82
			c0.955-2.389,0.477-5.015-1.434-6.687C1631.453,2550.479,1627.633,2536.867,1630.737,2523.972z M1445.671,2632.624
			c-14.806,0-31.521-2.865-42.745-7.402c-2.388-0.955-5.253-0.239-6.925,1.672c-7.642,8.118-17.433,13.85-27.938,16.477
			c5.969-11.224,7.402-24.596,3.82-37.014c-0.239-0.955-0.717-1.91-1.434-2.627c-14.088-14.566-21.969-32.953-21.969-52.057
			c0-43.938,44.416-80.952,97.189-80.952c49.67,0,93.369,34.625,93.369,80.952
			C1539.278,2596.327,1497.25,2632.624,1445.671,2632.624z M1594.918,2539.732c-1.672-1.91-4.537-2.627-6.925-1.672
			c-9.791,3.821-23.642,6.448-36.774,7.164c-1.91-23.641-13.611-45.609-33.671-62.087h81.19c3.344,0,6.209-2.865,6.209-6.208
			c0-3.344-2.865-6.209-6.209-6.209h-100.294c-14.089-7.164-30.088-11.462-46.326-12.179c3.582-41.789,43.938-74.981,93.13-74.981
			c52.774,0,97.19,37.013,97.19,80.951c0,19.104-7.88,37.491-21.97,52.058c-0.716,0.717-1.193,1.672-1.433,2.627
			c-3.581,12.656-2.149,25.79,3.821,37.013C1612.349,2553.583,1602.559,2547.852,1594.918,2539.732z"/>
		<path id="XMLID_474_" fill="#FFFFFF" d="M1619.275,2519.196c0.238-0.955,0.716-1.91,1.433-2.627
			c14.089-14.566,21.97-32.954,21.97-52.058c0-43.938-44.416-80.951-97.19-80.951c-49.192,0-89.549,33.192-93.131,74.981
			c16.238,0.955,32.237,5.015,46.327,12.179h100.294c3.343,0,6.208,2.865,6.208,6.209c0,3.343-2.865,6.208-6.208,6.208h-81.19
			c20.059,16.478,31.76,38.686,33.67,62.087c13.134-0.716,26.984-3.343,36.774-7.163c2.388-0.956,5.254-0.239,6.925,1.671
			c7.643,8.119,17.193,13.851,27.939,16.478C1617.126,2544.986,1615.693,2531.853,1619.275,2519.196z M1495.579,2445.886
			c-3.343,0-6.209-2.865-6.209-6.209c0-3.343,2.866-6.208,6.209-6.208s6.208,2.865,6.208,6.208
			C1501.787,2443.021,1498.922,2445.886,1495.579,2445.886z M1598.977,2445.886h-78.563c-3.344,0-6.209-2.865-6.209-6.209
			c0-3.343,2.865-6.208,6.209-6.208h78.563c3.343,0,6.208,2.865,6.208,6.208C1605.186,2443.021,1602.32,2445.886,1598.977,2445.886z
			"/>
		<path id="XMLID_388_" fill="#FFFFFF" d="M1445.671,2470.721c-52.774,0-97.19,37.014-97.19,80.952
			c0,19.104,7.881,37.49,21.97,52.057c0.716,0.717,1.194,1.672,1.433,2.627c3.582,12.656,2.148,25.79-3.82,37.014
			c10.745-2.627,20.536-8.358,27.938-16.477c1.672-1.911,4.537-2.627,6.925-1.672c11.224,4.537,27.939,7.402,42.745,7.402
			c51.579,0,93.369-36.297,93.369-80.951C1539.278,2505.346,1495.579,2470.721,1445.671,2470.721z M1392.179,2533.047
			c3.344,0,6.209,2.865,6.209,6.208c0,3.344-2.865,6.209-6.209,6.209c-3.342,0-6.208-2.865-6.208-6.209
			C1385.971,2535.912,1388.837,2533.047,1392.179,2533.047z M1495.579,2582.955h-103.399c-3.343,0-6.208-2.866-6.208-6.209
			c0-3.344,2.866-6.209,6.208-6.209h103.399c3.343,0,6.208,2.865,6.208,6.209
			C1501.787,2580.089,1498.922,2582.955,1495.579,2582.955z M1495.579,2545.464h-78.563c-3.344,0-6.209-2.866-6.209-6.209
			s2.865-6.209,6.209-6.209h78.563c3.343,0,6.208,2.866,6.208,6.209C1501.787,2542.599,1498.922,2545.464,1495.579,2545.464z"/>
		<path id="XMLID_334_" d="M1501.787,2539.255c0,3.343-2.865,6.209-6.208,6.209h-78.563c-3.344,0-6.209-2.866-6.209-6.209
			s2.865-6.209,6.209-6.209h78.563C1498.922,2533.047,1501.787,2535.912,1501.787,2539.255z"/>
		<path id="XMLID_331_" d="M1501.787,2576.746c0,3.343-2.865,6.209-6.208,6.209h-103.399c-3.343,0-6.208-2.866-6.208-6.209
			c0-3.344,2.866-6.209,6.208-6.209h103.399C1498.922,2570.299,1501.787,2573.164,1501.787,2576.746z"/>
		<path id="XMLID_200_" d="M1605.186,2439.677c0,3.344-2.866,6.209-6.209,6.209h-78.563c-3.344,0-6.209-2.865-6.209-6.209
			c0-3.343,2.865-6.208,6.209-6.208h78.563C1602.32,2433.469,1605.186,2436.096,1605.186,2439.677z"/>
	</g>
	<g id="XMLID_6_">
		
			<path id="XMLID_255_" fill="#FFFFFF" stroke="#000000" stroke-width="8" stroke-linecap="round" stroke-linejoin="round" stroke-miterlimit="10" d="
			M1171.771,3430.441c-1.193,0.238-2.388,0.238-3.343,0.478c-67.341,5.731-134.681,11.224-202.021,16.954
			c-3.104,0.239-6.209,0.478-8.597-1.433c-2.627-1.91-3.104-5.492-3.582-8.835c-12.417-103.638-25.073-207.275-37.49-310.913
			c-31.521-18.626-62.804-37.252-94.325-55.878c-30.088-17.91-61.132-36.297-83.101-63.52c-16.716-20.775-27.7-45.371-38.446-69.729
			c-32.954-74.504-65.669-149.009-98.622-223.513c18.387-10.269,36.774-20.298,55.161-30.566c4.299-2.388,8.836-4.775,13.134-7.402
			c6.209-3.582,7.164-5.254,10.984,1.194c5.492,9.074,10.746,18.148,16.238,27.223c21.73,36.297,43.461,72.594,65.191,108.651
			c9.313,15.522,18.626,31.282,27.939,46.805c5.97,10.029,12.179,20.059,20.059,28.416c10.746,10.985,24.596,18.626,38.207,25.79
			c35.581,19.104,71.161,38.208,106.742,57.312c48.953-7.642,98.145-14.566,147.337-21.253c2.865-0.478,6.209-0.717,8.597,0.955
			c2.388,1.91,3.104,5.015,3.343,8.119c21.015,153.068,41.79,306.375,62.804,459.443c0.478,3.343,0.717,6.925-1.433,9.552
			C1175.115,3429.247,1173.443,3429.964,1171.771,3430.441z"/>
		
			<path id="XMLID_2_" fill="#FFFFFF" stroke="#000000" stroke-width="8" stroke-linecap="round" stroke-linejoin="round" stroke-miterlimit="10" d="
			M613.228,2705.935l-29.372-45.133c0,0-31.76-8.597-40.834-35.103c-9.074-26.507,57.788-56.355,70.444-53.49
			c12.656,3.104,37.014,28.417,26.268,57.788l22.686,46.805L613.228,2705.935z"/>
	</g>
	<g id="XMLID_7_">
		
			<path id="XMLID_9_" fill="#FFFFFF" stroke="#000000" stroke-width="8" stroke-linecap="round" stroke-linejoin="round" stroke-miterlimit="10" d="
			M1186.816,3430.441c1.193,0.238,2.388,0.238,3.343,0.478c67.341,5.731,134.681,11.224,202.021,16.954
			c3.105,0.239,6.209,0.478,8.598-1.433c2.626-1.91,3.104-5.492,3.582-8.835c12.417-103.638,25.073-207.275,37.49-310.913
			c31.521-18.626,62.804-37.252,94.324-55.878c30.089-17.91,61.132-36.297,83.102-63.52c16.715-20.775,27.7-45.371,38.445-69.729
			c32.954-74.504,65.67-149.009,98.623-223.513c-18.387-10.269-36.774-20.298-55.162-30.566c-4.298-2.388-8.835-4.775-13.133-7.402
			c-6.209-3.582-7.164-5.254-10.985,1.194c-5.492,9.074-10.745,18.148-16.237,27.223c-21.73,36.297-43.461,72.594-65.191,108.651
			c-9.313,15.522-18.627,31.282-27.939,46.805c-5.97,10.029-12.179,20.059-20.059,28.416c-10.746,10.985-24.596,18.626-38.208,25.79
			c-35.58,19.104-71.161,38.208-106.741,57.312c-48.953-7.642-98.146-14.566-147.338-21.253c-2.865-0.478-6.208-0.717-8.596,0.955
			c-2.389,1.91-3.104,5.015-3.344,8.119c-21.014,153.068-41.789,306.375-62.803,459.443c-0.479,3.343-0.717,6.925,1.433,9.552
			C1183.234,3429.247,1184.905,3429.964,1186.816,3430.441z"/>
		
			<path id="XMLID_8_" fill="#FFFFFF" stroke="#000000" stroke-width="8" stroke-linecap="round" stroke-linejoin="round" stroke-miterlimit="10" d="
			M1745.359,2705.935l29.372-45.133c0,0,31.76-8.597,40.834-35.103c9.074-26.507-57.788-56.355-70.444-53.49
			c-12.656,3.104-37.014,28.417-26.268,57.788l-22.686,46.805L1745.359,2705.935z"/>
	</g>
	<g id="XMLID_352_">
		<path id="XMLID_760_" fill="#00FFB6" stroke="#000000" stroke-width="8" stroke-miterlimit="10" d="M1414.627,3073.919
			c-80.235,0-160.709,0-240.945,0l0,0h-55.4c-62.803,0-125.846,0-188.648,0c-22.925,0-30.327,8.358-28.895,31.282
			c0.239,3.582,0.478,6.925,0.717,10.507c6.925,69.013,13.85,138.024,21.014,206.798c3.344,33.67,6.447,67.579,10.984,101.01
			c2.866,21.253,13.134,28.417,34.626,28.417c136.353,0,272.466,0,408.818,0c24.596,0,35.581-9.313,37.969-34.147
			c10.507-103.638,21.014-207.275,31.282-311.151C1448.536,3081.083,1441.133,3073.919,1414.627,3073.919z M1173.921,3313.67
			c-28.655,0.238-51.818-22.686-51.58-50.863c0.239-28.656,22.925-51.103,51.58-51.103c28.178,0,50.386,22.208,50.624,50.147
			C1225.023,3290.746,1202.576,3313.67,1173.921,3313.67z"/>
		<path id="XMLID_739_" stroke="#000000" stroke-width="0.75" stroke-miterlimit="10" d="M1173.921,3211.704
			c-28.655,0-51.58,22.447-51.58,51.103c-0.238,28.178,23.163,51.103,51.58,50.863c28.655-0.238,51.103-22.924,50.624-51.818
			C1224.306,3233.912,1202.098,3211.943,1173.921,3211.704z M1173.205,3297.671c-18.865,0.238-34.626-16.238-34.148-35.819
			c0.478-19.104,15.283-33.432,34.625-33.432c18.865,0,34.387,15.283,34.387,33.909
			C1208.547,3281.433,1192.547,3297.193,1173.205,3297.671z"/>
		<path id="XMLID_32_" fill="#FFFFFF" stroke="#000000" stroke-width="0.75" stroke-miterlimit="10" d="M1173.921,3228.42
			c18.864,0,34.387,15.283,34.387,33.909c0,19.104-15.761,35.103-35.103,35.342c-18.865,0.238-34.626-16.238-34.148-35.819
			C1139.773,3242.509,1154.578,3228.181,1173.921,3228.42z"/>
	</g>
	<g id="XMLID_183_">
		
			<path id="XMLID_57_" fill="#FCFCFC" stroke="#000000" stroke-width="7" stroke-linecap="round" stroke-linejoin="round" stroke-miterlimit="10" d="
			M805.459,2318.607l-54.207-21.969c-0.478-0.239-0.716-0.239-1.193,0l-53.729,22.924c-0.955,0.478-2.149-0.478-2.149-1.433
			l4.299-58.266c0-0.478,0-0.717-0.478-1.194l-38.446-44.178c-0.717-0.955-0.239-2.148,0.716-2.626l56.834-14.089
			c0.478,0,0.716-0.239,0.955-0.717l30.088-50.147c0.717-0.955,2.149-0.955,2.627,0l30.805,49.67
			c0.239,0.239,0.478,0.716,0.955,0.716l57.072,13.135c1.194,0.238,1.672,1.671,0.955,2.626l-37.729,44.655
			c-0.239,0.238-0.478,0.717-0.478,1.193l5.253,58.267C807.846,2318.369,806.652,2319.085,805.459,2318.607z"/>
		<g id="XMLID_165_">
			
				<path id="XMLID_179_" fill="#FCFCFC" stroke="#000000" stroke-width="7" stroke-linecap="round" stroke-linejoin="round" stroke-miterlimit="10" d="
				M998.884,2248.641l-54.207-21.97c-0.478-0.238-0.716-0.238-1.194,0l-53.729,22.925c-0.955,0.478-2.149-0.478-2.149-1.433
				l4.299-58.267c0-0.478,0-0.716-0.478-1.193l-38.446-44.178c-0.717-0.955-0.239-2.149,0.716-2.627l56.834-14.089
				c0.478,0,0.716-0.238,0.955-0.716l30.088-50.147c0.717-0.955,2.149-0.955,2.627,0l30.805,49.67
				c0.238,0.238,0.478,0.716,0.955,0.716l57.072,13.134c1.193,0.239,1.672,1.672,0.955,2.627l-37.729,44.655
				c-0.239,0.238-0.478,0.716-0.478,1.193l5.253,58.267C1001.033,2248.163,999.839,2248.879,998.884,2248.641z"/>
			
				<path id="XMLID_180_" fill="#FCFCFC" stroke="#000000" stroke-width="7" stroke-linecap="round" stroke-linejoin="round" stroke-miterlimit="10" d="
				M1216.187,2212.821l-54.207-21.97c-0.477-0.238-0.716-0.238-1.193,0l-53.729,22.925c-0.955,0.478-2.148-0.478-2.148-1.433
				l4.298-58.267c0-0.478,0-0.716-0.478-1.193l-38.446-44.178c-0.716-0.955-0.238-2.149,0.717-2.627l56.833-14.089
				c0.478,0,0.717-0.238,0.955-0.716l30.089-50.147c0.716-0.955,2.148-0.955,2.627,0l30.805,49.67
				c0.238,0.238,0.477,0.716,0.955,0.716l57.072,13.134c1.193,0.239,1.671,1.672,0.955,2.627l-37.73,44.654
				c-0.238,0.239-0.478,0.717-0.478,1.194l5.254,58.267C1218.337,2212.344,1217.142,2213.06,1216.187,2212.821z"/>
			
				<path id="XMLID_181_" fill="#FCFCFC" stroke="#000000" stroke-width="7" stroke-linecap="round" stroke-linejoin="round" stroke-miterlimit="10" d="
				M1433.492,2248.641l-54.207-21.97c-0.478-0.238-0.717-0.238-1.193,0l-53.729,22.925c-0.955,0.478-2.149-0.478-2.149-1.433
				l4.299-58.267c0-0.478,0-0.716-0.479-1.193l-38.445-44.178c-0.717-0.955-0.239-2.149,0.716-2.627l56.833-14.089
				c0.479,0,0.717-0.238,0.956-0.716l30.088-50.147c0.717-0.955,2.149-0.955,2.627,0l30.805,49.67
				c0.239,0.238,0.478,0.716,0.955,0.716l57.072,13.134c1.194,0.239,1.672,1.672,0.955,2.627l-37.729,44.655
				c-0.238,0.238-0.478,0.716-0.478,1.193l5.253,58.267C1435.64,2248.163,1434.447,2248.879,1433.492,2248.641z"/>
		</g>
		
			<path id="XMLID_182_" fill="#FCFCFC" stroke="#000000" stroke-width="7" stroke-linecap="round" stroke-linejoin="round" stroke-miterlimit="10" d="
			M1638.856,2318.607l-54.207-21.969c-0.478-0.239-0.716-0.239-1.194,0l-53.729,22.924c-0.955,0.478-2.149-0.478-2.149-1.433
			l4.299-58.266c0-0.478,0-0.717-0.478-1.194l-38.446-44.178c-0.716-0.955-0.239-2.148,0.716-2.626l56.834-14.089
			c0.478,0,0.717-0.239,0.955-0.717l30.088-50.147c0.717-0.955,2.149-0.955,2.627,0l30.805,49.67
			c0.238,0.239,0.478,0.716,0.955,0.716l57.072,13.135c1.194,0.238,1.672,1.671,0.955,2.626l-37.729,44.655
			c-0.238,0.238-0.478,0.717-0.478,1.193l5.254,58.267C1641.006,2318.369,1639.811,2319.085,1638.856,2318.607z"/>
	</g>
</g>
</svg>
